<svg width="111" height="113" viewBox="0 0 111 113" fill="none" xmlns="http://www.w3.org/2000/svg">
<path d="M97 58.559H108.5C107.333 70.8923 99.9675 100.736 75 109.059C40.5 120.559 25 103.559 15 94.059L0 106.559C3.36177 93.4175 9.21733 67.3868 8.00994 60.0657C6.90317 58.1382 6.67951 57.3869 7.5 58.559C7.73283 58.8916 7.90044 59.4017 8.00994 60.0657C11.6244 66.3605 24.6573 85.2 41.5 90.559C20.3 89.359 22.3333 90.059 26 90.559C30.6667 95.7257 44.8142 103.903 65 101.559C91.5 98.4824 94.6667 71.3924 97 58.559Z" fill="#07B9DE"/>
<path d="M13.5 54.3531H2C3.16666 42.0198 10.5325 12.1756 35.5 3.85312C70 -7.64688 85.5 9.35312 95.5 18.8531L110.5 6.35312C107.138 19.4946 101.283 45.5253 102.49 52.8464C103.597 54.7739 103.82 55.5252 103 54.3531C102.767 54.0205 102.6 53.5104 102.49 52.8464C98.8756 46.5516 85.8427 27.7121 69 22.3531C90.2 23.5531 88.1667 22.8531 84.5 22.3531C79.8333 17.1864 65.6858 9.00945 45.5 11.353C19 14.4297 15.8333 41.5198 13.5 54.3531Z" fill="#11D186"/>
</svg>
