<svg width="363" height="113" viewBox="0 0 363 113" fill="none" xmlns="http://www.w3.org/2000/svg">
<path d="M97 58.559H108.5C107.333 70.8923 99.9675 100.736 75 109.059C40.5 120.559 25 103.559 15 94.059L0 106.559C3.36177 93.4175 9.21733 67.3868 8.00994 60.0657C6.90317 58.1382 6.67951 57.3869 7.5 58.559C7.73283 58.8916 7.90044 59.4017 8.00994 60.0657C11.6244 66.3605 24.6573 85.2 41.5 90.559C20.3 89.359 22.3333 90.059 26 90.559C30.6667 95.7257 44.8142 103.903 65 101.559C91.5 98.4824 94.6667 71.3924 97 58.559Z" fill="#07B9DE"/>
<path d="M13.5 54.3531H2C3.16666 42.0198 10.5325 12.1756 35.5 3.85312C70 -7.64688 85.5 9.35312 95.5 18.8531L110.5 6.35312C107.138 19.4946 101.283 45.5253 102.49 52.8464C103.597 54.7739 103.82 55.5252 103 54.3531C102.767 54.0205 102.6 53.5104 102.49 52.8464C98.8756 46.5516 85.8427 27.7121 69 22.3531C90.2 23.5531 88.1667 22.8531 84.5 22.3531C79.8333 17.1864 65.6858 9.00945 45.5 11.353C19 14.4297 15.8333 41.5198 13.5 54.3531Z" fill="#11D186"/>
<mask id="path-3-outside-1_537_28" maskUnits="userSpaceOnUse" x="130" y="21" width="133" height="31" fill="black">
<rect fill="white" x="130" y="21" width="133" height="31"/>
<path d="M131.59 50V23.36H139.675C139.958 23.36 140.439 23.3662 141.118 23.3785C141.808 23.3908 142.468 23.4402 143.097 23.5265C145.12 23.8102 146.809 24.5625 148.166 25.7835C149.523 27.0045 150.54 28.5585 151.219 30.4455C151.897 32.3325 152.236 34.4107 152.236 36.68C152.236 38.9493 151.897 41.0275 151.219 42.9145C150.54 44.8015 149.523 46.3555 148.166 47.5765C146.809 48.7975 145.12 49.5498 143.097 49.8335C142.48 49.9075 141.821 49.9568 141.118 49.9815C140.415 49.9938 139.934 50 139.675 50H131.59ZM134.402 47.3915H139.675C140.18 47.3915 140.723 47.3792 141.303 47.3545C141.895 47.3175 142.4 47.2558 142.82 47.1695C144.374 46.8982 145.625 46.2692 146.575 45.2825C147.537 44.2958 148.24 43.0625 148.684 41.5825C149.128 40.0902 149.35 38.456 149.35 36.68C149.35 34.8917 149.128 33.2513 148.684 31.759C148.24 30.2667 147.537 29.0333 146.575 28.059C145.613 27.0847 144.361 26.4618 142.82 26.1905C142.4 26.1042 141.888 26.0487 141.284 26.024C140.692 25.987 140.156 25.9685 139.675 25.9685H134.402V47.3915ZM156.819 26.2275V23.175H159.539V26.2275H156.819ZM156.819 50V30.02H159.539V50H156.819ZM174.335 50.555C172.473 50.555 170.795 50.2467 169.303 49.63C167.823 49.001 166.596 48.113 165.622 46.966C164.66 45.819 164.031 44.4562 163.735 42.8775L166.51 42.415C166.954 44.1417 167.891 45.4983 169.322 46.485C170.752 47.4593 172.46 47.9465 174.446 47.9465C175.753 47.9465 176.925 47.743 177.961 47.336C178.997 46.9167 179.811 46.3247 180.403 45.56C180.995 44.7953 181.291 43.8888 181.291 42.8405C181.291 42.1498 181.168 41.564 180.921 41.083C180.674 40.5897 180.348 40.1827 179.941 39.862C179.534 39.5413 179.09 39.2762 178.609 39.0665C178.128 38.8445 177.659 38.6657 177.203 38.53L170.45 36.5135C169.636 36.2792 168.884 35.9832 168.193 35.6255C167.502 35.2555 166.898 34.8177 166.38 34.312C165.874 33.794 165.48 33.1897 165.196 32.499C164.912 31.8083 164.771 31.019 164.771 30.131C164.771 28.6263 165.165 27.3252 165.955 26.2275C166.744 25.1298 167.823 24.285 169.192 23.693C170.561 23.101 172.121 22.8112 173.873 22.8235C175.649 22.8235 177.233 23.138 178.627 23.767C180.033 24.396 181.192 25.2963 182.105 26.468C183.018 27.6273 183.622 29.0025 183.918 30.5935L181.069 31.1115C180.884 29.9522 180.459 28.947 179.793 28.096C179.127 27.245 178.276 26.5913 177.24 26.135C176.216 25.6663 175.087 25.4258 173.854 25.4135C172.658 25.4135 171.591 25.617 170.654 26.024C169.729 26.4187 168.995 26.9613 168.452 27.652C167.909 28.3427 167.638 29.132 167.638 30.02C167.638 30.9203 167.885 31.6418 168.378 32.1845C168.884 32.7272 169.5 33.1527 170.228 33.461C170.968 33.7693 171.683 34.0222 172.374 34.2195L177.591 35.755C178.134 35.903 178.769 36.1188 179.497 36.4025C180.237 36.6738 180.952 37.0685 181.643 37.5865C182.346 38.0922 182.925 38.7582 183.382 39.5845C183.838 40.4108 184.066 41.4592 184.066 42.7295C184.066 43.9628 183.819 45.0667 183.326 46.041C182.845 47.0153 182.161 47.8355 181.273 48.5015C180.397 49.1675 179.367 49.6732 178.183 50.0185C177.011 50.3762 175.729 50.555 174.335 50.555ZM194.97 50V25.9685H185.665V23.36H206.995V25.9685H197.69V50H194.97ZM208.119 50V30.02H210.561V34.83L210.08 34.201C210.302 33.609 210.592 33.0663 210.95 32.573C211.307 32.0673 211.696 31.6542 212.115 31.3335C212.633 30.8772 213.238 30.5318 213.928 30.2975C214.619 30.0508 215.316 29.909 216.019 29.872C216.722 29.8227 217.363 29.872 217.943 30.02V32.573C217.215 32.388 216.42 32.3448 215.556 32.4435C214.693 32.5422 213.897 32.8875 213.17 33.4795C212.504 33.9975 212.004 34.6203 211.671 35.348C211.338 36.0633 211.116 36.828 211.005 37.642C210.894 38.4437 210.839 39.2392 210.839 40.0285V50H208.119ZM229.545 50.555C227.597 50.555 225.907 50.1233 224.476 49.26C223.058 48.3967 221.954 47.1818 221.165 45.6155C220.376 44.0492 219.981 42.2115 219.981 40.1025C219.981 37.9195 220.369 36.0325 221.146 34.4415C221.923 32.8505 223.015 31.6233 224.421 30.76C225.839 29.8967 227.51 29.465 229.434 29.465C231.408 29.465 233.091 29.9213 234.485 30.834C235.879 31.7343 236.933 33.0293 237.648 34.719C238.364 36.4087 238.691 38.4252 238.629 40.7685H235.854V39.8065C235.805 37.2165 235.243 35.2617 234.17 33.942C233.11 32.6223 231.556 31.9625 229.508 31.9625C227.362 31.9625 225.716 32.6593 224.569 34.053C223.434 35.4467 222.867 37.4323 222.867 40.01C222.867 42.526 223.434 44.4808 224.569 45.8745C225.716 47.2558 227.338 47.9465 229.434 47.9465C230.865 47.9465 232.111 47.6197 233.171 46.966C234.244 46.3 235.089 45.3442 235.706 44.0985L238.24 45.079C237.451 46.818 236.286 48.1685 234.744 49.1305C233.215 50.0802 231.482 50.555 229.545 50.555ZM221.905 40.7685V38.493H237.167V40.7685H221.905ZM251.985 50.555C250.122 50.555 248.445 50.2467 246.953 49.63C245.473 49.001 244.245 48.113 243.271 46.966C242.309 45.819 241.68 44.4562 241.384 42.8775L244.159 42.415C244.603 44.1417 245.54 45.4983 246.971 46.485C248.402 47.4593 250.11 47.9465 252.096 47.9465C253.403 47.9465 254.575 47.743 255.611 47.336C256.647 46.9167 257.461 46.3247 258.053 45.56C258.645 44.7953 258.941 43.8888 258.941 42.8405C258.941 42.1498 258.817 41.564 258.571 41.083C258.324 40.5897 257.997 40.1827 257.59 39.862C257.183 39.5413 256.739 39.2762 256.258 39.0665C255.777 38.8445 255.308 38.6657 254.852 38.53L248.1 36.5135C247.286 36.2792 246.533 35.9832 245.843 35.6255C245.152 35.2555 244.548 34.8177 244.03 34.312C243.524 33.794 243.129 33.1897 242.846 32.499C242.562 31.8083 242.42 31.019 242.42 30.131C242.42 28.6263 242.815 27.3252 243.604 26.2275C244.393 25.1298 245.473 24.285 246.842 23.693C248.211 23.101 249.771 22.8112 251.522 22.8235C253.298 22.8235 254.883 23.138 256.277 23.767C257.683 24.396 258.842 25.2963 259.755 26.468C260.667 27.6273 261.272 29.0025 261.568 30.5935L258.719 31.1115C258.534 29.9522 258.108 28.947 257.442 28.096C256.776 27.245 255.925 26.5913 254.889 26.135C253.865 25.6663 252.737 25.4258 251.504 25.4135C250.307 25.4135 249.24 25.617 248.303 26.024C247.378 26.4187 246.644 26.9613 246.102 27.652C245.559 28.3427 245.288 29.132 245.288 30.02C245.288 30.9203 245.534 31.6418 246.028 32.1845C246.533 32.7272 247.15 33.1527 247.878 33.461C248.618 33.7693 249.333 34.0222 250.024 34.2195L255.241 35.755C255.783 35.903 256.418 36.1188 257.146 36.4025C257.886 36.6738 258.601 37.0685 259.292 37.5865C259.995 38.0922 260.575 38.7582 261.031 39.5845C261.487 40.4108 261.716 41.4592 261.716 42.7295C261.716 43.9628 261.469 45.0667 260.976 46.041C260.495 47.0153 259.81 47.8355 258.922 48.5015C258.046 49.1675 257.017 49.6732 255.833 50.0185C254.661 50.3762 253.378 50.555 251.985 50.555Z"/>
</mask>
<path d="M131.59 50V23.36H139.675C139.958 23.36 140.439 23.3662 141.118 23.3785C141.808 23.3908 142.468 23.4402 143.097 23.5265C145.12 23.8102 146.809 24.5625 148.166 25.7835C149.523 27.0045 150.54 28.5585 151.219 30.4455C151.897 32.3325 152.236 34.4107 152.236 36.68C152.236 38.9493 151.897 41.0275 151.219 42.9145C150.54 44.8015 149.523 46.3555 148.166 47.5765C146.809 48.7975 145.12 49.5498 143.097 49.8335C142.48 49.9075 141.821 49.9568 141.118 49.9815C140.415 49.9938 139.934 50 139.675 50H131.59ZM134.402 47.3915H139.675C140.18 47.3915 140.723 47.3792 141.303 47.3545C141.895 47.3175 142.4 47.2558 142.82 47.1695C144.374 46.8982 145.625 46.2692 146.575 45.2825C147.537 44.2958 148.24 43.0625 148.684 41.5825C149.128 40.0902 149.35 38.456 149.35 36.68C149.35 34.8917 149.128 33.2513 148.684 31.759C148.24 30.2667 147.537 29.0333 146.575 28.059C145.613 27.0847 144.361 26.4618 142.82 26.1905C142.4 26.1042 141.888 26.0487 141.284 26.024C140.692 25.987 140.156 25.9685 139.675 25.9685H134.402V47.3915ZM156.819 26.2275V23.175H159.539V26.2275H156.819ZM156.819 50V30.02H159.539V50H156.819ZM174.335 50.555C172.473 50.555 170.795 50.2467 169.303 49.63C167.823 49.001 166.596 48.113 165.622 46.966C164.66 45.819 164.031 44.4562 163.735 42.8775L166.51 42.415C166.954 44.1417 167.891 45.4983 169.322 46.485C170.752 47.4593 172.46 47.9465 174.446 47.9465C175.753 47.9465 176.925 47.743 177.961 47.336C178.997 46.9167 179.811 46.3247 180.403 45.56C180.995 44.7953 181.291 43.8888 181.291 42.8405C181.291 42.1498 181.168 41.564 180.921 41.083C180.674 40.5897 180.348 40.1827 179.941 39.862C179.534 39.5413 179.09 39.2762 178.609 39.0665C178.128 38.8445 177.659 38.6657 177.203 38.53L170.45 36.5135C169.636 36.2792 168.884 35.9832 168.193 35.6255C167.502 35.2555 166.898 34.8177 166.38 34.312C165.874 33.794 165.48 33.1897 165.196 32.499C164.912 31.8083 164.771 31.019 164.771 30.131C164.771 28.6263 165.165 27.3252 165.955 26.2275C166.744 25.1298 167.823 24.285 169.192 23.693C170.561 23.101 172.121 22.8112 173.873 22.8235C175.649 22.8235 177.233 23.138 178.627 23.767C180.033 24.396 181.192 25.2963 182.105 26.468C183.018 27.6273 183.622 29.0025 183.918 30.5935L181.069 31.1115C180.884 29.9522 180.459 28.947 179.793 28.096C179.127 27.245 178.276 26.5913 177.24 26.135C176.216 25.6663 175.087 25.4258 173.854 25.4135C172.658 25.4135 171.591 25.617 170.654 26.024C169.729 26.4187 168.995 26.9613 168.452 27.652C167.909 28.3427 167.638 29.132 167.638 30.02C167.638 30.9203 167.885 31.6418 168.378 32.1845C168.884 32.7272 169.5 33.1527 170.228 33.461C170.968 33.7693 171.683 34.0222 172.374 34.2195L177.591 35.755C178.134 35.903 178.769 36.1188 179.497 36.4025C180.237 36.6738 180.952 37.0685 181.643 37.5865C182.346 38.0922 182.925 38.7582 183.382 39.5845C183.838 40.4108 184.066 41.4592 184.066 42.7295C184.066 43.9628 183.819 45.0667 183.326 46.041C182.845 47.0153 182.161 47.8355 181.273 48.5015C180.397 49.1675 179.367 49.6732 178.183 50.0185C177.011 50.3762 175.729 50.555 174.335 50.555ZM194.97 50V25.9685H185.665V23.36H206.995V25.9685H197.69V50H194.97ZM208.119 50V30.02H210.561V34.83L210.08 34.201C210.302 33.609 210.592 33.0663 210.95 32.573C211.307 32.0673 211.696 31.6542 212.115 31.3335C212.633 30.8772 213.238 30.5318 213.928 30.2975C214.619 30.0508 215.316 29.909 216.019 29.872C216.722 29.8227 217.363 29.872 217.943 30.02V32.573C217.215 32.388 216.42 32.3448 215.556 32.4435C214.693 32.5422 213.897 32.8875 213.17 33.4795C212.504 33.9975 212.004 34.6203 211.671 35.348C211.338 36.0633 211.116 36.828 211.005 37.642C210.894 38.4437 210.839 39.2392 210.839 40.0285V50H208.119ZM229.545 50.555C227.597 50.555 225.907 50.1233 224.476 49.26C223.058 48.3967 221.954 47.1818 221.165 45.6155C220.376 44.0492 219.981 42.2115 219.981 40.1025C219.981 37.9195 220.369 36.0325 221.146 34.4415C221.923 32.8505 223.015 31.6233 224.421 30.76C225.839 29.8967 227.51 29.465 229.434 29.465C231.408 29.465 233.091 29.9213 234.485 30.834C235.879 31.7343 236.933 33.0293 237.648 34.719C238.364 36.4087 238.691 38.4252 238.629 40.7685H235.854V39.8065C235.805 37.2165 235.243 35.2617 234.17 33.942C233.11 32.6223 231.556 31.9625 229.508 31.9625C227.362 31.9625 225.716 32.6593 224.569 34.053C223.434 35.4467 222.867 37.4323 222.867 40.01C222.867 42.526 223.434 44.4808 224.569 45.8745C225.716 47.2558 227.338 47.9465 229.434 47.9465C230.865 47.9465 232.111 47.6197 233.171 46.966C234.244 46.3 235.089 45.3442 235.706 44.0985L238.24 45.079C237.451 46.818 236.286 48.1685 234.744 49.1305C233.215 50.0802 231.482 50.555 229.545 50.555ZM221.905 40.7685V38.493H237.167V40.7685H221.905ZM251.985 50.555C250.122 50.555 248.445 50.2467 246.953 49.63C245.473 49.001 244.245 48.113 243.271 46.966C242.309 45.819 241.68 44.4562 241.384 42.8775L244.159 42.415C244.603 44.1417 245.54 45.4983 246.971 46.485C248.402 47.4593 250.11 47.9465 252.096 47.9465C253.403 47.9465 254.575 47.743 255.611 47.336C256.647 46.9167 257.461 46.3247 258.053 45.56C258.645 44.7953 258.941 43.8888 258.941 42.8405C258.941 42.1498 258.817 41.564 258.571 41.083C258.324 40.5897 257.997 40.1827 257.59 39.862C257.183 39.5413 256.739 39.2762 256.258 39.0665C255.777 38.8445 255.308 38.6657 254.852 38.53L248.1 36.5135C247.286 36.2792 246.533 35.9832 245.843 35.6255C245.152 35.2555 244.548 34.8177 244.03 34.312C243.524 33.794 243.129 33.1897 242.846 32.499C242.562 31.8083 242.42 31.019 242.42 30.131C242.42 28.6263 242.815 27.3252 243.604 26.2275C244.393 25.1298 245.473 24.285 246.842 23.693C248.211 23.101 249.771 22.8112 251.522 22.8235C253.298 22.8235 254.883 23.138 256.277 23.767C257.683 24.396 258.842 25.2963 259.755 26.468C260.667 27.6273 261.272 29.0025 261.568 30.5935L258.719 31.1115C258.534 29.9522 258.108 28.947 257.442 28.096C256.776 27.245 255.925 26.5913 254.889 26.135C253.865 25.6663 252.737 25.4258 251.504 25.4135C250.307 25.4135 249.24 25.617 248.303 26.024C247.378 26.4187 246.644 26.9613 246.102 27.652C245.559 28.3427 245.288 29.132 245.288 30.02C245.288 30.9203 245.534 31.6418 246.028 32.1845C246.533 32.7272 247.15 33.1527 247.878 33.461C248.618 33.7693 249.333 34.0222 250.024 34.2195L255.241 35.755C255.783 35.903 256.418 36.1188 257.146 36.4025C257.886 36.6738 258.601 37.0685 259.292 37.5865C259.995 38.0922 260.575 38.7582 261.031 39.5845C261.487 40.4108 261.716 41.4592 261.716 42.7295C261.716 43.9628 261.469 45.0667 260.976 46.041C260.495 47.0153 259.81 47.8355 258.922 48.5015C258.046 49.1675 257.017 49.6732 255.833 50.0185C254.661 50.3762 253.378 50.555 251.985 50.555Z" fill="#07B9DE"/>
<path d="M131.59 50H130.59V51H131.59V50ZM131.59 23.36V22.36H130.59V23.36H131.59ZM141.118 23.3785L141.099 24.3783L141.1 24.3783L141.118 23.3785ZM143.097 23.5265L143.236 22.5362L143.233 22.5358L143.097 23.5265ZM148.166 25.7835L147.497 26.5268L147.497 26.5268L148.166 25.7835ZM151.219 30.4455L152.16 30.1072L152.16 30.1072L151.219 30.4455ZM151.219 42.9145L152.16 43.2528L152.16 43.2528L151.219 42.9145ZM148.166 47.5765L147.497 46.8332L147.497 46.8332L148.166 47.5765ZM143.097 49.8335L143.216 50.8264L143.226 50.8252L143.236 50.8238L143.097 49.8335ZM141.118 49.9815L141.135 50.9813L141.144 50.9812L141.153 50.9809L141.118 49.9815ZM134.402 47.3915H133.402V48.3915H134.402V47.3915ZM141.303 47.3545L141.345 48.3536L141.355 48.3532L141.365 48.3526L141.303 47.3545ZM142.82 47.1695L142.647 46.1844L142.633 46.187L142.618 46.19L142.82 47.1695ZM146.575 45.2825L145.859 44.5844L145.855 44.589L146.575 45.2825ZM148.684 41.5825L149.642 41.8698L149.642 41.8677L148.684 41.5825ZM148.684 31.759L149.642 31.4738L149.642 31.4738L148.684 31.759ZM146.575 28.059L147.287 27.3564L147.287 27.3564L146.575 28.059ZM142.82 26.1905L142.618 27.17L142.632 27.1729L142.646 27.1754L142.82 26.1905ZM141.284 26.024L141.222 27.0221L141.232 27.0227L141.243 27.0232L141.284 26.024ZM134.402 25.9685V24.9685H133.402V25.9685H134.402ZM132.59 50V23.36H130.59V50H132.59ZM131.59 24.36H139.675V22.36H131.59V24.36ZM139.675 24.36C139.948 24.36 140.421 24.366 141.099 24.3783L141.136 22.3787C140.457 22.3663 139.968 22.36 139.675 22.36V24.36ZM141.1 24.3783C141.754 24.39 142.374 24.4367 142.961 24.5172L143.233 22.5358C142.562 22.4436 141.862 22.3916 141.135 22.3787L141.1 24.3783ZM142.958 24.5168C144.808 24.7762 146.306 25.4547 147.497 26.5268L148.835 25.0402C147.313 23.6703 145.432 22.8441 143.236 22.5362L142.958 24.5168ZM147.497 26.5268C148.719 27.6267 149.649 29.0365 150.277 30.7838L152.16 30.1072C151.431 28.0805 150.326 26.3823 148.835 25.0402L147.497 26.5268ZM150.277 30.7838C150.912 32.549 151.236 34.511 151.236 36.68H153.236C153.236 34.3104 152.882 32.116 152.16 30.1072L150.277 30.7838ZM151.236 36.68C151.236 38.849 150.912 40.811 150.277 42.5762L152.16 43.2528C152.882 41.244 153.236 39.0496 153.236 36.68H151.236ZM150.277 42.5762C149.649 44.3235 148.719 45.7333 147.497 46.8332L148.835 48.3198C150.326 46.9777 151.431 45.2795 152.16 43.2528L150.277 42.5762ZM147.497 46.8332C146.306 47.9053 144.808 48.5838 142.958 48.8432L143.236 50.8238C145.432 50.5159 147.313 49.6897 148.835 48.3198L147.497 46.8332ZM142.978 48.8406C142.392 48.9109 141.761 48.9583 141.082 48.9821L141.153 50.9809C141.88 50.9554 142.568 50.9041 143.216 50.8264L142.978 48.8406ZM141.1 48.9817C140.396 48.994 139.924 49 139.675 49V51C139.944 51 140.433 50.9937 141.135 50.9813L141.1 48.9817ZM139.675 49H131.59V51H139.675V49ZM134.402 48.3915H139.675V46.3915H134.402V48.3915ZM139.675 48.3915C140.196 48.3915 140.753 48.3788 141.345 48.3536L141.26 46.3554C140.692 46.3796 140.164 46.3915 139.675 46.3915V48.3915ZM141.365 48.3526C141.987 48.3137 142.542 48.2476 143.021 48.149L142.618 46.19C142.258 46.2641 141.802 46.3213 141.24 46.3564L141.365 48.3526ZM142.992 48.1546C144.722 47.8525 146.177 47.1381 147.295 45.976L145.855 44.589C145.074 45.4002 144.025 45.9438 142.647 46.1844L142.992 48.1546ZM147.291 45.9806C148.379 44.8651 149.157 43.4853 149.642 41.8698L147.726 41.2952C147.323 42.6397 146.695 43.7266 145.859 44.5844L147.291 45.9806ZM149.642 41.8677C150.118 40.2708 150.35 38.5392 150.35 36.68H148.35C148.35 38.3728 148.138 39.9095 147.726 41.2973L149.642 41.8677ZM150.35 36.68C150.35 34.8091 150.118 33.0713 149.642 31.4738L147.726 32.0442C148.138 33.4314 148.35 34.9742 148.35 36.68H150.35ZM149.642 31.4738C149.158 29.846 148.379 28.4627 147.287 27.3564L145.863 28.7616C146.695 29.604 147.322 30.6873 147.726 32.0442L149.642 31.4738ZM147.287 27.3564C146.159 26.2139 144.709 25.5076 142.993 25.2056L142.646 27.1754C144.014 27.4161 145.067 27.9554 145.863 28.7616L147.287 27.3564ZM143.021 25.211C142.532 25.1104 141.963 25.0509 141.325 25.0248L141.243 27.0232C141.814 27.0465 142.268 27.098 142.618 27.17L143.021 25.211ZM141.346 25.0259C140.738 24.9879 140.18 24.9685 139.675 24.9685V26.9685C140.131 26.9685 140.646 26.9861 141.222 27.0221L141.346 25.0259ZM139.675 24.9685H134.402V26.9685H139.675V24.9685ZM133.402 25.9685V47.3915H135.402V25.9685H133.402ZM156.819 26.2275H155.819V27.2275H156.819V26.2275ZM156.819 23.175V22.175H155.819V23.175H156.819ZM159.539 23.175H160.539V22.175H159.539V23.175ZM159.539 26.2275V27.2275H160.539V26.2275H159.539ZM156.819 50H155.819V51H156.819V50ZM156.819 30.02V29.02H155.819V30.02H156.819ZM159.539 30.02H160.539V29.02H159.539V30.02ZM159.539 50V51H160.539V50H159.539ZM157.819 26.2275V23.175H155.819V26.2275H157.819ZM156.819 24.175H159.539V22.175H156.819V24.175ZM158.539 23.175V26.2275H160.539V23.175H158.539ZM159.539 25.2275H156.819V27.2275H159.539V25.2275ZM157.819 50V30.02H155.819V50H157.819ZM156.819 31.02H159.539V29.02H156.819V31.02ZM158.539 30.02V50H160.539V30.02H158.539ZM159.539 49H156.819V51H159.539V49ZM169.303 49.63L168.912 50.5504L168.921 50.5542L169.303 49.63ZM165.622 46.966L164.855 47.6086L164.859 47.6134L165.622 46.966ZM163.735 42.8775L163.57 41.8911L162.564 42.0589L162.752 43.0618L163.735 42.8775ZM166.51 42.415L167.478 42.166L167.25 41.2779L166.345 41.4286L166.51 42.415ZM169.322 46.485L168.754 47.3082L168.759 47.3115L169.322 46.485ZM177.961 47.336L178.327 48.2668L178.336 48.2629L177.961 47.336ZM180.403 45.56L181.194 46.1722L181.194 46.1722L180.403 45.56ZM180.921 41.083L180.027 41.5302L180.031 41.5393L180.921 41.083ZM179.941 39.862L180.559 39.0765L180.559 39.0765L179.941 39.862ZM178.609 39.0665L178.19 39.9745L178.199 39.9789L178.209 39.9832L178.609 39.0665ZM177.203 38.53L176.916 39.4882L176.918 39.4885L177.203 38.53ZM170.45 36.5135L170.736 35.5553L170.727 35.5525L170.45 36.5135ZM168.193 35.6255L167.721 36.5071L167.733 36.5135L168.193 35.6255ZM166.38 34.312L165.665 35.0105L165.673 35.0192L165.682 35.0276L166.38 34.312ZM165.196 32.499L164.271 32.8789L164.271 32.8789L165.196 32.499ZM165.955 26.2275L165.143 25.6437L165.143 25.6437L165.955 26.2275ZM173.873 22.8235L173.866 23.8235H173.873V22.8235ZM178.627 23.767L178.216 24.6785L178.219 24.6798L178.627 23.767ZM182.105 26.468L181.316 27.0825L181.319 27.0866L182.105 26.468ZM183.918 30.5935L184.097 31.5774L185.085 31.3978L184.901 30.4106L183.918 30.5935ZM181.069 31.1115L180.082 31.2691L180.243 32.2782L181.248 32.0954L181.069 31.1115ZM179.793 28.096L180.58 27.4797L180.58 27.4797L179.793 28.096ZM177.24 26.135L176.823 27.0442L176.83 27.0472L176.837 27.0502L177.24 26.135ZM173.854 25.4135L173.864 24.4135H173.854V25.4135ZM170.654 26.024L171.046 26.9438L171.052 26.9413L170.654 26.024ZM168.378 32.1845L167.638 32.8572L167.647 32.8662L168.378 32.1845ZM170.228 33.461L169.838 34.3818L169.844 34.3841L170.228 33.461ZM172.374 34.2195L172.656 33.2602L172.649 33.258L172.374 34.2195ZM177.591 35.755L177.309 36.7143L177.318 36.7171L177.328 36.7198L177.591 35.755ZM179.497 36.4025L179.133 37.3342L179.143 37.3379L179.152 37.3414L179.497 36.4025ZM181.643 37.5865L181.043 38.3865L181.051 38.3925L181.059 38.3983L181.643 37.5865ZM183.382 39.5845L184.257 39.1011L184.257 39.1011L183.382 39.5845ZM183.326 46.041L182.434 45.5893L182.429 45.5983L183.326 46.041ZM181.273 48.5015L180.673 47.7015L180.667 47.7056L181.273 48.5015ZM178.183 50.0185L177.903 49.0584L177.891 49.0621L178.183 50.0185ZM174.335 49.555C172.584 49.555 171.039 49.2653 169.685 48.7058L168.921 50.5542C170.552 51.228 172.362 51.555 174.335 51.555V49.555ZM169.694 48.7097C168.347 48.1373 167.251 47.3389 166.384 46.3186L164.859 47.6134C165.941 48.8871 167.299 49.8647 168.912 50.5503L169.694 48.7097ZM166.388 46.3234C165.544 45.3176 164.984 44.1157 164.717 42.6932L162.752 43.0618C163.077 44.7966 163.775 46.3204 164.855 47.6086L166.388 46.3234ZM163.899 43.8639L166.674 43.4014L166.345 41.4286L163.57 41.8911L163.899 43.8639ZM165.541 42.664C166.043 44.6175 167.119 46.1809 168.754 47.3082L169.889 45.6618C168.663 44.8158 167.864 43.6658 167.478 42.166L165.541 42.664ZM168.759 47.3115C170.379 48.4149 172.29 48.9465 174.446 48.9465V46.9465C172.631 46.9465 171.126 46.5038 169.885 45.6585L168.759 47.3115ZM174.446 48.9465C175.857 48.9465 177.156 48.7267 178.327 48.2668L177.595 46.4052C176.694 46.7593 175.65 46.9465 174.446 46.9465V48.9465ZM178.336 48.2629C179.51 47.7877 180.478 47.0972 181.194 46.1722L179.612 44.9478C179.145 45.5522 178.484 46.0456 177.586 46.4091L178.336 48.2629ZM181.194 46.1722C181.933 45.2172 182.291 44.0906 182.291 42.8405H180.291C180.291 43.687 180.057 44.3734 179.612 44.9478L181.194 46.1722ZM182.291 42.8405C182.291 42.034 182.147 41.2826 181.811 40.6267L180.031 41.5393C180.188 41.8454 180.291 42.2657 180.291 42.8405H182.291ZM181.816 40.6358C181.507 40.0195 181.089 39.4941 180.559 39.0765L179.322 40.6475C179.606 40.8712 179.842 41.1599 180.027 41.5302L181.816 40.6358ZM180.559 39.0765C180.084 38.7022 179.567 38.3932 179.008 38.1498L178.209 39.9832C178.613 40.1591 178.983 40.3804 179.322 40.6475L180.559 39.0765ZM179.028 38.1585C178.508 37.9187 177.995 37.7222 177.488 37.5715L176.918 39.4885C177.323 39.6092 177.747 39.7703 178.19 39.9745L179.028 38.1585ZM177.489 37.5718L170.736 35.5553L170.164 37.4717L176.916 39.4882L177.489 37.5718ZM170.727 35.5525C169.971 35.3348 169.28 35.0623 168.653 34.7375L167.733 36.5135C168.487 36.904 169.302 37.2235 170.173 37.4745L170.727 35.5525ZM168.665 34.744C168.051 34.4148 167.524 34.0313 167.079 33.5964L165.682 35.0276C166.272 35.6041 166.954 36.0962 167.721 36.507L168.665 34.744ZM167.096 33.6135C166.682 33.1902 166.358 32.6949 166.121 32.1191L164.271 32.8789C164.602 33.6844 165.066 34.3978 165.665 35.0105L167.096 33.6135ZM166.121 32.1191C165.895 31.5695 165.771 30.9129 165.771 30.131H163.771C163.771 31.1251 163.929 32.0472 164.271 32.8789L166.121 32.1191ZM165.771 30.131C165.771 28.8111 166.113 27.7198 166.766 26.8113L165.143 25.6437C164.217 26.9305 163.771 28.4416 163.771 30.131H165.771ZM166.766 26.8113C167.44 25.8753 168.368 25.1387 169.589 24.6109L168.795 22.7751C167.278 23.4313 166.048 24.3843 165.143 25.6437L166.766 26.8113ZM169.589 24.6109C170.81 24.0827 172.229 23.812 173.866 23.8235L173.88 21.8235C172.013 21.8104 170.312 22.1193 168.795 22.7751L169.589 24.6109ZM173.873 23.8235C175.53 23.8235 176.971 24.1165 178.216 24.6785L179.038 22.8555C177.496 22.1595 175.768 21.8235 173.873 21.8235V23.8235ZM178.219 24.6798C179.481 25.2446 180.508 26.0448 181.316 27.0825L182.894 25.8535C181.877 24.5479 180.585 23.5474 179.035 22.8542L178.219 24.6798ZM181.319 27.0866C182.123 28.1068 182.666 29.3287 182.935 30.7764L184.901 30.4106C184.579 28.6762 183.913 27.1479 182.891 25.8494L181.319 27.0866ZM183.739 29.6096L180.89 30.1276L181.248 32.0954L184.097 31.5774L183.739 29.6096ZM182.057 30.9539C181.847 29.6421 181.359 28.4755 180.58 27.4797L179.005 28.7123C179.558 29.4185 179.921 30.2623 180.082 31.2691L182.057 30.9539ZM180.58 27.4797C179.808 26.4927 178.822 25.7393 177.643 25.2198L176.837 27.0502C177.729 27.4433 178.446 27.9973 179.005 28.7123L180.58 27.4797ZM177.656 25.2258C176.493 24.6933 175.224 24.4271 173.864 24.4135L173.844 26.4134C174.951 26.4245 175.939 26.6394 176.823 27.0442L177.656 25.2258ZM173.854 24.4135C172.544 24.4135 171.338 24.6366 170.255 25.1067L171.052 26.9413C171.844 26.5973 172.772 26.4135 173.854 26.4135V24.4135ZM170.261 25.1042C169.204 25.5552 168.327 26.1933 167.666 27.0342L169.238 28.2698C169.663 27.7294 170.253 27.2822 171.046 26.9438L170.261 25.1042ZM167.666 27.0342C166.983 27.9031 166.638 28.9106 166.638 30.02H168.638C168.638 29.3534 168.836 28.7822 169.238 28.2698L167.666 27.0342ZM166.638 30.02C166.638 31.1098 166.941 32.0908 167.638 32.8572L169.118 31.5118C168.828 31.1929 168.638 30.7309 168.638 30.02H166.638ZM167.647 32.8662C168.254 33.5183 168.99 34.0223 169.838 34.3818L170.618 32.5402C170.011 32.2831 169.513 31.936 169.11 31.5028L167.647 32.8662ZM169.844 34.3841C170.615 34.7057 171.367 34.9719 172.099 35.181L172.649 33.258C172 33.0725 171.321 32.833 170.613 32.5379L169.844 34.3841ZM172.092 35.1788L177.309 36.7143L177.873 34.7957L172.656 33.2602L172.092 35.1788ZM177.328 36.7198C177.827 36.8557 178.427 37.0588 179.133 37.3342L179.86 35.4708C179.111 35.1789 178.441 34.9503 177.854 34.7902L177.328 36.7198ZM179.152 37.3414C179.793 37.5761 180.423 37.9215 181.043 38.3865L182.243 36.7865C181.481 36.2155 180.681 35.7716 179.841 35.4636L179.152 37.3414ZM181.059 38.3983C181.631 38.8099 182.115 39.3594 182.506 40.0679L184.257 39.1011C183.736 38.1569 183.06 37.3744 182.227 36.7747L181.059 38.3983ZM182.506 40.0679C182.857 40.7038 183.066 41.5721 183.066 42.7295H185.066C185.066 41.3462 184.818 40.1178 184.257 39.1011L182.506 40.0679ZM183.066 42.7295C183.066 43.8264 182.848 44.7722 182.434 45.5893L184.218 46.4927C184.791 45.3612 185.066 44.0993 185.066 42.7295H183.066ZM182.429 45.5983C182.019 46.4288 181.438 47.1276 180.673 47.7015L181.873 49.3015C182.883 48.5434 183.671 47.6019 184.223 46.4837L182.429 45.5983ZM180.667 47.7056C179.9 48.289 178.984 48.7433 177.903 49.0585L178.463 50.9785C179.751 50.603 180.894 50.046 181.878 49.2974L180.667 47.7056ZM177.891 49.0621C176.826 49.3872 175.643 49.555 174.335 49.555V51.555C175.814 51.555 177.197 51.3651 178.475 50.9749L177.891 49.0621ZM194.97 50H193.97V51H194.97V50ZM194.97 25.9685H195.97V24.9685H194.97V25.9685ZM185.665 25.9685H184.665V26.9685H185.665V25.9685ZM185.665 23.36V22.36H184.665V23.36H185.665ZM206.995 23.36H207.995V22.36H206.995V23.36ZM206.995 25.9685V26.9685H207.995V25.9685H206.995ZM197.69 25.9685V24.9685H196.69V25.9685H197.69ZM197.69 50V51H198.69V50H197.69ZM195.97 50V25.9685H193.97V50H195.97ZM194.97 24.9685H185.665V26.9685H194.97V24.9685ZM186.665 25.9685V23.36H184.665V25.9685H186.665ZM185.665 24.36H206.995V22.36H185.665V24.36ZM205.995 23.36V25.9685H207.995V23.36H205.995ZM206.995 24.9685H197.69V26.9685H206.995V24.9685ZM196.69 25.9685V50H198.69V25.9685H196.69ZM197.69 49H194.97V51H197.69V49ZM208.119 50H207.119V51H208.119V50ZM208.119 30.02V29.02H207.119V30.02H208.119ZM210.561 30.02H211.561V29.02H210.561V30.02ZM210.561 34.83L209.767 35.4374L211.561 37.7839V34.83H210.561ZM210.08 34.201L209.144 33.8499L208.949 34.3685L209.286 34.8084L210.08 34.201ZM210.95 32.573L211.759 33.16L211.766 33.1505L210.95 32.573ZM212.115 31.3335L212.723 32.1279L212.75 32.1068L212.776 32.0839L212.115 31.3335ZM213.928 30.2975L214.25 31.2445L214.257 31.2419L214.265 31.2392L213.928 30.2975ZM216.019 29.872L216.071 30.8706L216.08 30.8702L216.089 30.8695L216.019 29.872ZM217.943 30.02H218.943V29.2432L218.19 29.0511L217.943 30.02ZM217.943 32.573L217.696 33.5422L218.943 33.859V32.573H217.943ZM215.556 32.4435L215.443 31.45L215.443 31.45L215.556 32.4435ZM213.17 33.4795L213.784 34.2689L213.792 34.2621L213.801 34.2552L213.17 33.4795ZM211.671 35.348L212.578 35.77L212.581 35.7641L211.671 35.348ZM211.005 37.642L211.996 37.7792L211.996 37.7771L211.005 37.642ZM210.839 50V51H211.839V50H210.839ZM209.119 50V30.02H207.119V50H209.119ZM208.119 31.02H210.561V29.02H208.119V31.02ZM209.561 30.02V34.83H211.561V30.02H209.561ZM211.356 34.2225L210.875 33.5935L209.286 34.8084L209.767 35.4374L211.356 34.2225ZM211.017 34.5521C211.208 34.0409 211.456 33.578 211.759 33.16L210.14 31.986C209.728 32.5546 209.396 33.1771 209.144 33.8499L211.017 34.5521ZM211.766 33.1505C212.075 32.7133 212.396 32.3776 212.723 32.1279L211.508 30.5391C210.996 30.9307 210.54 31.4213 210.133 31.9955L211.766 33.1505ZM212.776 32.0839C213.19 31.7197 213.677 31.4388 214.25 31.2445L213.607 29.3505C212.798 29.6249 212.077 30.0346 211.454 30.5831L212.776 32.0839ZM214.265 31.2392C214.868 31.0238 215.469 30.9023 216.071 30.8706L215.966 28.8734C215.162 28.9157 214.37 29.0778 213.592 29.3558L214.265 31.2392ZM216.089 30.8695C216.704 30.8264 217.236 30.8716 217.695 30.9889L218.19 29.0511C217.49 28.8724 216.74 28.8189 215.949 28.8745L216.089 30.8695ZM216.943 30.02V32.573H218.943V30.02H216.943ZM218.189 31.6038C217.327 31.3847 216.408 31.3397 215.443 31.45L215.67 33.437C216.431 33.35 217.103 33.3913 217.696 33.5422L218.189 31.6038ZM215.443 31.45C214.374 31.5721 213.402 32.0012 212.539 32.7038L213.801 34.2552C214.393 33.7738 215.011 33.5123 215.67 33.437L215.443 31.45ZM212.556 32.6901C211.77 33.3014 211.166 34.0499 210.762 34.9319L212.581 35.7641C212.843 35.1908 213.238 34.6936 213.784 34.2689L212.556 32.6901ZM210.765 34.926C210.388 35.7359 210.138 36.5977 210.014 37.5069L211.996 37.7771C212.094 37.0583 212.289 36.3908 212.578 35.77L210.765 34.926ZM210.015 37.5048C209.898 38.3508 209.839 39.1921 209.839 40.0285H211.839C211.839 39.2862 211.891 38.5365 211.996 37.7792L210.015 37.5048ZM209.839 40.0285V50H211.839V40.0285H209.839ZM210.839 49H208.119V51H210.839V49ZM224.476 49.26L223.957 50.1142L223.96 50.1162L224.476 49.26ZM221.165 45.6155L222.058 45.1655L222.058 45.1655L221.165 45.6155ZM221.146 34.4415L220.248 34.0027L220.248 34.0027L221.146 34.4415ZM224.421 30.76L223.901 29.9058L223.898 29.9078L224.421 30.76ZM234.485 30.834L233.937 31.6706L233.942 31.674L234.485 30.834ZM237.648 34.719L238.569 34.3291L238.569 34.3291L237.648 34.719ZM238.629 40.7685V41.7685H239.603L239.629 40.7948L238.629 40.7685ZM235.854 40.7685H234.854V41.7685H235.854V40.7685ZM235.854 39.8065H236.854V39.797L236.854 39.7875L235.854 39.8065ZM234.17 33.942L233.391 34.5685L233.395 34.5729L234.17 33.942ZM224.569 34.053L223.797 33.4175L223.793 33.4216L224.569 34.053ZM224.569 45.8745L223.793 46.5059L223.8 46.5133L224.569 45.8745ZM233.171 46.966L233.696 47.8173L233.699 47.8156L233.171 46.966ZM235.706 44.0985L236.067 43.1659L235.215 42.8363L234.81 43.6548L235.706 44.0985ZM238.24 45.079L239.151 45.4923L239.589 44.5283L238.601 44.1464L238.24 45.079ZM234.744 49.1305L235.272 49.98L235.273 49.9789L234.744 49.1305ZM221.905 40.7685H220.905V41.7685H221.905V40.7685ZM221.905 38.493V37.493H220.905V38.493H221.905ZM237.167 38.493H238.167V37.493H237.167V38.493ZM237.167 40.7685V41.7685H238.167V40.7685H237.167ZM229.545 49.555C227.748 49.555 226.244 49.1584 224.993 48.4038L223.96 50.1162C225.571 51.0883 227.445 51.555 229.545 51.555V49.555ZM224.996 48.4058C223.747 47.6452 222.768 46.5747 222.058 45.1655L220.272 46.0655C221.14 47.789 222.369 49.1481 223.957 50.1142L224.996 48.4058ZM222.058 45.1655C221.352 43.7642 220.981 42.0865 220.981 40.1025H218.981C218.981 42.3365 219.399 44.3341 220.272 46.0655L222.058 45.1655ZM220.981 40.1025C220.981 38.0369 221.349 36.3066 222.045 34.8803L220.248 34.0027C219.39 35.7584 218.981 37.8021 218.981 40.1025H220.981ZM222.045 34.8803C222.745 33.4469 223.712 32.3688 224.944 31.6122L223.898 29.9078C222.318 30.8778 221.102 32.2541 220.248 34.0027L222.045 34.8803ZM224.941 31.6142C226.179 30.8605 227.664 30.465 229.434 30.465V28.465C227.357 28.465 225.5 28.9328 223.901 29.9058L224.941 31.6142ZM229.434 30.465C231.25 30.465 232.734 30.8829 233.937 31.6706L235.033 29.9974C233.448 28.9597 231.566 28.465 229.434 28.465V30.465ZM233.942 31.674C235.15 32.4541 236.082 33.5834 236.728 35.1089L238.569 34.3291C237.785 32.4753 236.607 31.0145 235.028 29.994L233.942 31.674ZM236.728 35.1089C237.374 36.6359 237.688 38.5034 237.629 40.7422L239.629 40.7948C239.693 38.3469 239.354 36.1815 238.569 34.3291L236.728 35.1089ZM238.629 39.7685H235.854V41.7685H238.629V39.7685ZM236.854 40.7685V39.8065H234.854V40.7685H236.854ZM236.854 39.7875C236.802 37.0851 236.217 34.8739 234.946 33.3111L233.395 34.5729C234.27 35.6494 234.807 37.3479 234.854 39.8255L236.854 39.7875ZM234.95 33.3155C233.659 31.7099 231.789 30.9625 229.508 30.9625V32.9625C231.323 32.9625 232.56 33.5347 233.391 34.5685L234.95 33.3155ZM229.508 30.9625C227.126 30.9625 225.17 31.7487 223.797 33.4175L225.341 34.6885C226.262 33.57 227.599 32.9625 229.508 32.9625V30.9625ZM223.793 33.4216C222.462 35.057 221.867 37.2999 221.867 40.01H223.867C223.867 37.5648 224.407 35.8364 225.344 34.6844L223.793 33.4216ZM221.867 40.01C221.867 42.6653 222.465 44.8743 223.793 46.5059L225.344 45.2431C224.403 44.0874 223.867 42.3867 223.867 40.01H221.867ZM223.8 46.5133C225.169 48.163 227.096 48.9465 229.434 48.9465V46.9465C227.58 46.9465 226.262 46.3487 225.338 45.2357L223.8 46.5133ZM229.434 48.9465C231.022 48.9465 232.455 48.5819 233.696 47.8173L232.647 46.1147C231.766 46.6574 230.708 46.9465 229.434 46.9465V48.9465ZM233.699 47.8156C234.946 47.0416 235.911 45.9375 236.602 44.5422L234.81 43.6548C234.267 44.7508 233.543 45.5584 232.644 46.1164L233.699 47.8156ZM235.345 45.0311L237.88 46.0116L238.601 44.1464L236.067 43.1659L235.345 45.0311ZM237.33 44.6657C236.618 46.2349 235.58 47.4299 234.215 48.2821L235.273 49.9789C236.991 48.9071 238.285 47.4011 239.151 45.4923L237.33 44.6657ZM234.216 48.281C232.858 49.1248 231.31 49.555 229.545 49.555V51.555C231.654 51.555 233.572 51.0355 235.272 49.98L234.216 48.281ZM222.905 40.7685V38.493H220.905V40.7685H222.905ZM221.905 39.493H237.167V37.493H221.905V39.493ZM236.167 38.493V40.7685H238.167V38.493H236.167ZM237.167 39.7685H221.905V41.7685H237.167V39.7685ZM246.953 49.63L246.561 50.5504L246.571 50.5542L246.953 49.63ZM243.271 46.966L242.505 47.6086L242.509 47.6134L243.271 46.966ZM241.384 42.8775L241.22 41.8911L240.213 42.0589L240.401 43.0618L241.384 42.8775ZM244.159 42.415L245.128 42.166L244.899 41.2779L243.995 41.4286L244.159 42.415ZM246.971 46.485L246.403 47.3082L246.408 47.3115L246.971 46.485ZM255.611 47.336L255.976 48.2668L255.986 48.2629L255.611 47.336ZM258.053 45.56L258.843 46.1722L258.843 46.1722L258.053 45.56ZM258.571 41.083L257.676 41.5302L257.681 41.5393L258.571 41.083ZM257.59 39.862L258.209 39.0765L258.209 39.0765L257.59 39.862ZM256.258 39.0665L255.839 39.9745L255.849 39.9789L255.858 39.9832L256.258 39.0665ZM254.852 38.53L254.566 39.4882L254.567 39.4885L254.852 38.53ZM248.1 36.5135L248.386 35.5553L248.376 35.5525L248.1 36.5135ZM245.843 35.6255L245.37 36.5071L245.383 36.5135L245.843 35.6255ZM244.03 34.312L243.314 35.0105L243.322 35.0192L243.331 35.0276L244.03 34.312ZM242.846 32.499L241.921 32.8789L241.921 32.8789L242.846 32.499ZM243.604 26.2275L242.792 25.6437L242.792 25.6437L243.604 26.2275ZM251.522 22.8235L251.515 23.8235H251.522V22.8235ZM256.277 23.767L255.865 24.6785L255.868 24.6798L256.277 23.767ZM259.755 26.468L258.966 27.0825L258.969 27.0866L259.755 26.468ZM261.568 30.5935L261.746 31.5774L262.734 31.3978L262.551 30.4106L261.568 30.5935ZM258.719 31.1115L257.731 31.2691L257.892 32.2782L258.897 32.0954L258.719 31.1115ZM257.442 28.096L258.23 27.4797L258.23 27.4797L257.442 28.096ZM254.889 26.135L254.473 27.0442L254.479 27.0472L254.486 27.0502L254.889 26.135ZM251.504 25.4135L251.514 24.4135H251.504V25.4135ZM248.303 26.024L248.695 26.9438L248.701 26.9413L248.303 26.024ZM246.028 32.1845L245.288 32.8572L245.296 32.8662L246.028 32.1845ZM247.878 33.461L247.487 34.3818L247.493 34.3841L247.878 33.461ZM250.024 34.2195L250.306 33.2602L250.298 33.258L250.024 34.2195ZM255.241 35.755L254.958 36.7143L254.968 36.7171L254.977 36.7198L255.241 35.755ZM257.146 36.4025L256.783 37.3342L256.792 37.3379L256.802 37.3414L257.146 36.4025ZM259.292 37.5865L258.692 38.3865L258.7 38.3925L258.708 38.3983L259.292 37.5865ZM261.031 39.5845L261.906 39.1011L261.906 39.1011L261.031 39.5845ZM260.976 46.041L260.083 45.5893L260.079 45.5983L260.976 46.041ZM258.922 48.5015L258.322 47.7015L258.317 47.7056L258.922 48.5015ZM255.833 50.0185L255.553 49.0584L255.541 49.0621L255.833 50.0185ZM251.985 49.555C250.233 49.555 248.689 49.2653 247.334 48.7058L246.571 50.5542C248.201 51.228 250.011 51.555 251.985 51.555V49.555ZM247.344 48.7097C245.997 48.1373 244.9 47.3389 244.033 46.3186L242.509 47.6134C243.591 48.8871 244.948 49.8647 246.561 50.5503L247.344 48.7097ZM244.037 46.3234C243.194 45.3176 242.634 44.1157 242.367 42.6932L240.401 43.0618C240.726 44.7966 241.424 46.3204 242.505 47.6086L244.037 46.3234ZM241.548 43.8639L244.323 43.4014L243.995 41.4286L241.22 41.8911L241.548 43.8639ZM243.191 42.664C243.693 44.6175 244.769 46.1809 246.403 47.3082L247.539 45.6618C246.312 44.8158 245.513 43.6658 245.128 42.166L243.191 42.664ZM246.408 47.3115C248.028 48.4149 249.94 48.9465 252.096 48.9465V46.9465C250.28 46.9465 248.775 46.5038 247.534 45.6585L246.408 47.3115ZM252.096 48.9465C253.507 48.9465 254.805 48.7267 255.976 48.2668L255.245 46.4052C254.344 46.7593 253.299 46.9465 252.096 46.9465V48.9465ZM255.986 48.2629C257.16 47.7877 258.127 47.0972 258.843 46.1722L257.262 44.9478C256.794 45.5522 256.133 46.0456 255.235 46.4091L255.986 48.2629ZM258.843 46.1722C259.583 45.2172 259.941 44.0906 259.941 42.8405H257.941C257.941 43.687 257.706 44.3734 257.262 44.9478L258.843 46.1722ZM259.941 42.8405C259.941 42.034 259.797 41.2826 259.46 40.6267L257.681 41.5393C257.838 41.8454 257.941 42.2657 257.941 42.8405H259.941ZM259.465 40.6358C259.157 40.0195 258.739 39.4941 258.209 39.0765L256.971 40.6475C257.255 40.8712 257.491 41.1599 257.676 41.5302L259.465 40.6358ZM258.209 39.0765C257.734 38.7022 257.216 38.3932 256.658 38.1498L255.858 39.9832C256.262 40.1591 256.632 40.3804 256.971 40.6475L258.209 39.0765ZM256.677 38.1585C256.157 37.9187 255.644 37.7222 255.137 37.5715L254.567 39.4885C254.973 39.6092 255.397 39.7703 255.839 39.9745L256.677 38.1585ZM255.138 37.5718L248.386 35.5553L247.813 37.4717L254.566 39.4882L255.138 37.5718ZM248.376 35.5525C247.62 35.3348 246.93 35.0623 246.302 34.7375L245.383 36.5135C246.137 36.904 246.951 37.2235 247.823 37.4745L248.376 35.5525ZM246.315 34.744C245.7 34.4148 245.174 34.0313 244.728 33.5964L243.331 35.0276C243.922 35.6041 244.604 36.0962 245.37 36.507L246.315 34.744ZM244.745 33.6135C244.332 33.1902 244.007 32.6949 243.771 32.1191L241.921 32.8789C242.251 33.6844 242.716 34.3978 243.314 35.0105L244.745 33.6135ZM243.771 32.1191C243.545 31.5695 243.42 30.9129 243.42 30.131H241.42C241.42 31.1251 241.579 32.0472 241.921 32.8789L243.771 32.1191ZM243.42 30.131C243.42 28.8111 243.763 27.7198 244.416 26.8113L242.792 25.6437C241.867 26.9305 241.42 28.4416 241.42 30.131H243.42ZM244.416 26.8113C245.089 25.8753 246.018 25.1387 247.238 24.6109L246.445 22.7751C244.927 23.4313 243.698 24.3843 242.792 25.6437L244.416 26.8113ZM247.238 24.6109C248.46 24.0827 249.879 23.812 251.515 23.8235L251.529 21.8235C249.663 21.8104 247.961 22.1193 246.445 22.7751L247.238 24.6109ZM251.522 23.8235C253.179 23.8235 254.62 24.1165 255.865 24.6785L256.688 22.8555C255.146 22.1595 253.417 21.8235 251.522 21.8235V23.8235ZM255.868 24.6798C257.131 25.2446 258.157 26.0448 258.966 27.0825L260.543 25.8535C259.526 24.5479 258.234 23.5474 256.685 22.8542L255.868 24.6798ZM258.969 27.0866C259.772 28.1068 260.315 29.3287 260.584 30.7764L262.551 30.4106C262.228 28.6762 261.562 27.1479 260.54 25.8494L258.969 27.0866ZM261.389 29.6096L258.54 30.1276L258.897 32.0954L261.746 31.5774L261.389 29.6096ZM259.706 30.9539C259.497 29.6421 259.009 28.4755 258.23 27.4797L256.655 28.7123C257.207 29.4185 257.57 30.2623 257.731 31.2691L259.706 30.9539ZM258.23 27.4797C257.457 26.4927 256.472 25.7393 255.292 25.2198L254.486 27.0502C255.379 27.4433 256.095 27.9973 256.655 28.7123L258.23 27.4797ZM255.305 25.2258C254.142 24.6933 252.874 24.4271 251.514 24.4135L251.494 26.4134C252.6 26.4245 253.588 26.6394 254.473 27.0442L255.305 25.2258ZM251.504 24.4135C250.193 24.4135 248.987 24.6366 247.905 25.1067L248.701 26.9413C249.493 26.5973 250.421 26.4135 251.504 26.4135V24.4135ZM247.911 25.1042C246.854 25.5552 245.976 26.1933 245.315 27.0342L246.888 28.2698C247.312 27.7294 247.902 27.2822 248.695 26.9438L247.911 25.1042ZM245.315 27.0342C244.632 27.9031 244.288 28.9106 244.288 30.02H246.288C246.288 29.3534 246.485 28.7822 246.888 28.2698L245.315 27.0342ZM244.288 30.02C244.288 31.1098 244.591 32.0908 245.288 32.8572L246.767 31.5118C246.477 31.1929 246.288 30.7309 246.288 30.02H244.288ZM245.296 32.8662C245.904 33.5183 246.639 34.0223 247.487 34.3818L248.268 32.5402C247.661 32.2831 247.163 31.936 246.759 31.5028L245.296 32.8662ZM247.493 34.3841C248.265 34.7057 249.017 34.9719 249.749 35.181L250.298 33.258C249.649 33.0725 248.97 32.833 248.262 32.5379L247.493 34.3841ZM249.741 35.1788L254.958 36.7143L255.523 34.7957L250.306 33.2602L249.741 35.1788ZM254.977 36.7198C255.476 36.8557 256.076 37.0588 256.783 37.3342L257.509 35.4708C256.76 35.1789 256.09 34.9503 255.504 34.7902L254.977 36.7198ZM256.802 37.3414C257.442 37.5761 258.072 37.9215 258.692 38.3865L259.892 36.7865C259.131 36.2155 258.33 35.7716 257.49 35.4636L256.802 37.3414ZM258.708 38.3983C259.28 38.8099 259.764 39.3594 260.156 40.0679L261.906 39.1011C261.385 38.1569 260.71 37.3744 259.876 36.7747L258.708 38.3983ZM260.156 40.0679C260.507 40.7038 260.716 41.5721 260.716 42.7295H262.716C262.716 41.3462 262.468 40.1178 261.906 39.1011L260.156 40.0679ZM260.716 42.7295C260.716 43.8264 260.497 44.7722 260.083 45.5893L261.868 46.4927C262.441 45.3612 262.716 44.0993 262.716 42.7295H260.716ZM260.079 45.5983C259.669 46.4288 259.087 47.1276 258.322 47.7015L259.522 49.3015C260.533 48.5434 261.32 47.6019 261.872 46.4837L260.079 45.5983ZM258.317 47.7056C257.55 48.289 256.633 48.7433 255.553 49.0585L256.113 50.9785C257.4 50.603 258.543 50.046 259.527 49.2974L258.317 47.7056ZM255.541 49.0621C254.476 49.3872 253.293 49.555 251.985 49.555V51.555C253.464 51.555 254.846 51.3651 256.124 50.9749L255.541 49.0621Z" fill="#07B9DE" mask="url(#path-3-outside-1_537_28)"/>
<mask id="path-5-outside-2_537_28" maskUnits="userSpaceOnUse" x="123" y="58" width="162" height="31" fill="black">
<rect fill="white" x="123" y="58" width="162" height="31"/>
<path d="M134.84 87.555C132.978 87.555 131.3 87.2467 129.808 86.63C128.328 86.001 127.101 85.113 126.127 83.966C125.165 82.819 124.536 81.4562 124.24 79.8775L127.015 79.415C127.459 81.1417 128.396 82.4983 129.827 83.485C131.257 84.4593 132.965 84.9465 134.951 84.9465C136.258 84.9465 137.43 84.743 138.466 84.336C139.502 83.9167 140.316 83.3247 140.908 82.56C141.5 81.7953 141.796 80.8888 141.796 79.8405C141.796 79.1498 141.673 78.564 141.426 78.083C141.179 77.5897 140.853 77.1827 140.446 76.862C140.039 76.5413 139.595 76.2762 139.114 76.0665C138.633 75.8445 138.164 75.6657 137.708 75.53L130.955 73.5135C130.141 73.2792 129.389 72.9832 128.698 72.6255C128.007 72.2555 127.403 71.8177 126.885 71.312C126.379 70.794 125.985 70.1897 125.701 69.499C125.417 68.8083 125.276 68.019 125.276 67.131C125.276 65.6263 125.67 64.3252 126.46 63.2275C127.249 62.1298 128.328 61.285 129.697 60.693C131.066 60.101 132.626 59.8112 134.378 59.8235C136.154 59.8235 137.738 60.138 139.132 60.767C140.538 61.396 141.697 62.2963 142.61 63.468C143.523 64.6273 144.127 66.0025 144.423 67.5935L141.574 68.1115C141.389 66.9522 140.964 65.947 140.298 65.096C139.632 64.245 138.781 63.5913 137.745 63.135C136.721 62.6663 135.592 62.4258 134.359 62.4135C133.163 62.4135 132.096 62.617 131.159 63.024C130.234 63.4187 129.5 63.9613 128.957 64.652C128.414 65.3427 128.143 66.132 128.143 67.02C128.143 67.9203 128.39 68.6418 128.883 69.1845C129.389 69.7272 130.005 70.1527 130.733 70.461C131.473 70.7693 132.188 71.0222 132.879 71.2195L138.096 72.755C138.639 72.903 139.274 73.1188 140.002 73.4025C140.742 73.6738 141.457 74.0685 142.148 74.5865C142.851 75.0922 143.43 75.7582 143.887 76.5845C144.343 77.4108 144.571 78.4592 144.571 79.7295C144.571 80.9628 144.324 82.0667 143.831 83.041C143.35 84.0153 142.666 84.8355 141.778 85.5015C140.902 86.1675 139.872 86.6732 138.688 87.0185C137.516 87.3762 136.234 87.555 134.84 87.555ZM156.733 87.555C154.748 87.555 153.052 87.1048 151.646 86.2045C150.24 85.3042 149.161 84.0585 148.408 82.4675C147.656 80.8765 147.28 79.0512 147.28 76.9915C147.28 74.8948 147.662 73.0572 148.427 71.4785C149.191 69.8998 150.277 68.6727 151.683 67.797C153.101 66.909 154.785 66.465 156.733 66.465C158.731 66.465 160.433 66.9152 161.839 67.8155C163.258 68.7035 164.337 69.943 165.077 71.534C165.829 73.1127 166.205 74.9318 166.205 76.9915C166.205 79.0882 165.829 80.932 165.077 82.523C164.324 84.1017 163.239 85.335 161.821 86.223C160.402 87.111 158.707 87.555 156.733 87.555ZM156.733 84.9465C158.953 84.9465 160.606 84.2127 161.691 82.745C162.777 81.265 163.319 79.3472 163.319 76.9915C163.319 74.5742 162.77 72.6502 161.673 71.2195C160.587 69.7888 158.941 69.0735 156.733 69.0735C155.241 69.0735 154.008 69.4127 153.033 70.091C152.071 70.757 151.35 71.6882 150.869 72.8845C150.4 74.0685 150.166 75.4375 150.166 76.9915C150.166 79.3965 150.721 81.3267 151.831 82.782C152.941 84.225 154.575 84.9465 156.733 84.9465ZM170.656 87V59.805H173.376V87H170.656ZM186.563 87.4995C185.366 87.4995 184.318 87.3145 183.418 86.9445C182.53 86.5745 181.771 86.075 181.142 85.446C180.525 84.817 180.026 84.1017 179.644 83.3C179.261 82.486 178.984 81.6288 178.811 80.7285C178.638 79.8158 178.552 78.9093 178.552 78.009V67.02H181.29V77.2135C181.29 78.3112 181.395 79.3287 181.605 80.266C181.814 81.2033 182.147 82.0235 182.604 82.7265C183.072 83.4172 183.67 83.9537 184.398 84.336C185.138 84.7183 186.032 84.9095 187.081 84.9095C188.043 84.9095 188.887 84.743 189.615 84.41C190.355 84.077 190.972 83.6022 191.465 82.9855C191.971 82.3565 192.353 81.598 192.612 80.71C192.871 79.8097 193.001 78.7983 193.001 77.676L194.925 78.1015C194.925 80.1488 194.567 81.8693 193.852 83.263C193.136 84.6567 192.15 85.7112 190.892 86.4265C189.634 87.1418 188.191 87.4995 186.563 87.4995ZM193.278 87V82.079H193.001V67.02H195.72V87H193.278ZM211.769 87C210.646 87.2343 209.536 87.3268 208.439 87.2775C207.353 87.2282 206.379 86.9938 205.516 86.5745C204.665 86.1552 204.017 85.5015 203.573 84.6135C203.216 83.8735 203.018 83.1273 202.981 82.375C202.957 81.6103 202.944 80.7408 202.944 79.7665V61.47H205.645V79.6555C205.645 80.4942 205.651 81.1972 205.664 81.7645C205.688 82.3195 205.818 82.8128 206.052 83.2445C206.496 84.0708 207.199 84.5642 208.161 84.7245C209.136 84.8848 210.338 84.8478 211.769 84.6135V87ZM198.671 69.351V67.02H211.769V69.351H198.671ZM216.075 63.2275V60.175H218.795V63.2275H216.075ZM216.075 87V67.02H218.795V87H216.075ZM232.684 87.555C230.699 87.555 229.003 87.1048 227.597 86.2045C226.191 85.3042 225.112 84.0585 224.359 82.4675C223.607 80.8765 223.231 79.0512 223.231 76.9915C223.231 74.8948 223.613 73.0572 224.378 71.4785C225.143 69.8998 226.228 68.6727 227.634 67.797C229.052 66.909 230.736 66.465 232.684 66.465C234.682 66.465 236.384 66.9152 237.79 67.8155C239.209 68.7035 240.288 69.943 241.028 71.534C241.78 73.1127 242.156 74.9318 242.156 76.9915C242.156 79.0882 241.78 80.932 241.028 82.523C240.276 84.1017 239.19 85.335 237.772 86.223C236.354 87.111 234.658 87.555 232.684 87.555ZM232.684 84.9465C234.904 84.9465 236.557 84.2127 237.642 82.745C238.728 81.265 239.27 79.3472 239.27 76.9915C239.27 74.5742 238.722 72.6502 237.624 71.2195C236.539 69.7888 234.892 69.0735 232.684 69.0735C231.192 69.0735 229.959 69.4127 228.984 70.091C228.022 70.757 227.301 71.6882 226.82 72.8845C226.351 74.0685 226.117 75.4375 226.117 76.9915C226.117 79.3965 226.672 81.3267 227.782 82.782C228.892 84.225 230.526 84.9465 232.684 84.9465ZM260.667 87V76.8065C260.667 75.6965 260.563 74.679 260.353 73.754C260.143 72.8167 259.804 72.0027 259.335 71.312C258.879 70.609 258.281 70.0663 257.541 69.684C256.813 69.3017 255.925 69.1105 254.877 69.1105C253.915 69.1105 253.064 69.277 252.324 69.61C251.596 69.943 250.98 70.424 250.474 71.053C249.981 71.6697 249.604 72.422 249.345 73.31C249.086 74.198 248.957 75.2093 248.957 76.344L247.033 75.9185C247.033 73.8712 247.391 72.1507 248.106 70.757C248.821 69.3633 249.808 68.3088 251.066 67.5935C252.324 66.8782 253.767 66.5205 255.395 66.5205C256.591 66.5205 257.633 66.7055 258.521 67.0755C259.422 67.4455 260.18 67.945 260.797 68.574C261.426 69.203 261.932 69.9245 262.314 70.7385C262.696 71.5402 262.974 72.3973 263.146 73.31C263.319 74.2103 263.405 75.1107 263.405 76.011V87H260.667ZM246.219 87V67.02H248.679V71.941H248.957V87H246.219ZM275.662 87.5365C273.318 87.5365 271.388 87.0308 269.871 86.0195C268.367 85.0082 267.442 83.6022 267.096 81.8015L269.871 81.339C270.167 82.4737 270.839 83.3802 271.888 84.0585C272.948 84.7245 274.256 85.0575 275.81 85.0575C277.327 85.0575 278.523 84.743 279.399 84.114C280.274 83.4727 280.712 82.6032 280.712 81.5055C280.712 80.8888 280.57 80.3893 280.287 80.007C280.015 79.6123 279.454 79.2485 278.603 78.9155C277.752 78.5825 276.482 78.1878 274.792 77.7315C272.979 77.2382 271.561 76.7448 270.537 76.2515C269.514 75.7582 268.786 75.1908 268.354 74.5495C267.923 73.8958 267.707 73.1003 267.707 72.163C267.707 71.0283 268.027 70.0355 268.669 69.1845C269.31 68.3212 270.198 67.6552 271.333 67.1865C272.467 66.7055 273.787 66.465 275.292 66.465C276.796 66.465 278.141 66.7117 279.325 67.205C280.521 67.686 281.483 68.3643 282.211 69.24C282.938 70.1157 283.37 71.1332 283.506 72.2925L280.731 72.792C280.546 71.6203 279.96 70.6953 278.973 70.017C277.999 69.3263 276.759 68.9687 275.255 68.944C273.836 68.907 272.683 69.1783 271.795 69.758C270.907 70.3253 270.463 71.0838 270.463 72.0335C270.463 72.5638 270.624 73.0202 270.944 73.4025C271.265 73.7725 271.845 74.124 272.683 74.457C273.534 74.79 274.743 75.1538 276.309 75.5485C278.147 76.0172 279.59 76.5105 280.638 77.0285C281.687 77.5465 282.433 78.157 282.877 78.86C283.321 79.563 283.543 80.4325 283.543 81.4685C283.543 83.3555 282.84 84.8417 281.434 85.927C280.04 87 278.116 87.5365 275.662 87.5365Z"/>
</mask>
<path d="M134.84 87.555C132.978 87.555 131.3 87.2467 129.808 86.63C128.328 86.001 127.101 85.113 126.127 83.966C125.165 82.819 124.536 81.4562 124.24 79.8775L127.015 79.415C127.459 81.1417 128.396 82.4983 129.827 83.485C131.257 84.4593 132.965 84.9465 134.951 84.9465C136.258 84.9465 137.43 84.743 138.466 84.336C139.502 83.9167 140.316 83.3247 140.908 82.56C141.5 81.7953 141.796 80.8888 141.796 79.8405C141.796 79.1498 141.673 78.564 141.426 78.083C141.179 77.5897 140.853 77.1827 140.446 76.862C140.039 76.5413 139.595 76.2762 139.114 76.0665C138.633 75.8445 138.164 75.6657 137.708 75.53L130.955 73.5135C130.141 73.2792 129.389 72.9832 128.698 72.6255C128.007 72.2555 127.403 71.8177 126.885 71.312C126.379 70.794 125.985 70.1897 125.701 69.499C125.417 68.8083 125.276 68.019 125.276 67.131C125.276 65.6263 125.67 64.3252 126.46 63.2275C127.249 62.1298 128.328 61.285 129.697 60.693C131.066 60.101 132.626 59.8112 134.378 59.8235C136.154 59.8235 137.738 60.138 139.132 60.767C140.538 61.396 141.697 62.2963 142.61 63.468C143.523 64.6273 144.127 66.0025 144.423 67.5935L141.574 68.1115C141.389 66.9522 140.964 65.947 140.298 65.096C139.632 64.245 138.781 63.5913 137.745 63.135C136.721 62.6663 135.592 62.4258 134.359 62.4135C133.163 62.4135 132.096 62.617 131.159 63.024C130.234 63.4187 129.5 63.9613 128.957 64.652C128.414 65.3427 128.143 66.132 128.143 67.02C128.143 67.9203 128.39 68.6418 128.883 69.1845C129.389 69.7272 130.005 70.1527 130.733 70.461C131.473 70.7693 132.188 71.0222 132.879 71.2195L138.096 72.755C138.639 72.903 139.274 73.1188 140.002 73.4025C140.742 73.6738 141.457 74.0685 142.148 74.5865C142.851 75.0922 143.43 75.7582 143.887 76.5845C144.343 77.4108 144.571 78.4592 144.571 79.7295C144.571 80.9628 144.324 82.0667 143.831 83.041C143.35 84.0153 142.666 84.8355 141.778 85.5015C140.902 86.1675 139.872 86.6732 138.688 87.0185C137.516 87.3762 136.234 87.555 134.84 87.555ZM156.733 87.555C154.748 87.555 153.052 87.1048 151.646 86.2045C150.24 85.3042 149.161 84.0585 148.408 82.4675C147.656 80.8765 147.28 79.0512 147.28 76.9915C147.28 74.8948 147.662 73.0572 148.427 71.4785C149.191 69.8998 150.277 68.6727 151.683 67.797C153.101 66.909 154.785 66.465 156.733 66.465C158.731 66.465 160.433 66.9152 161.839 67.8155C163.258 68.7035 164.337 69.943 165.077 71.534C165.829 73.1127 166.205 74.9318 166.205 76.9915C166.205 79.0882 165.829 80.932 165.077 82.523C164.324 84.1017 163.239 85.335 161.821 86.223C160.402 87.111 158.707 87.555 156.733 87.555ZM156.733 84.9465C158.953 84.9465 160.606 84.2127 161.691 82.745C162.777 81.265 163.319 79.3472 163.319 76.9915C163.319 74.5742 162.77 72.6502 161.673 71.2195C160.587 69.7888 158.941 69.0735 156.733 69.0735C155.241 69.0735 154.008 69.4127 153.033 70.091C152.071 70.757 151.35 71.6882 150.869 72.8845C150.4 74.0685 150.166 75.4375 150.166 76.9915C150.166 79.3965 150.721 81.3267 151.831 82.782C152.941 84.225 154.575 84.9465 156.733 84.9465ZM170.656 87V59.805H173.376V87H170.656ZM186.563 87.4995C185.366 87.4995 184.318 87.3145 183.418 86.9445C182.53 86.5745 181.771 86.075 181.142 85.446C180.525 84.817 180.026 84.1017 179.644 83.3C179.261 82.486 178.984 81.6288 178.811 80.7285C178.638 79.8158 178.552 78.9093 178.552 78.009V67.02H181.29V77.2135C181.29 78.3112 181.395 79.3287 181.605 80.266C181.814 81.2033 182.147 82.0235 182.604 82.7265C183.072 83.4172 183.67 83.9537 184.398 84.336C185.138 84.7183 186.032 84.9095 187.081 84.9095C188.043 84.9095 188.887 84.743 189.615 84.41C190.355 84.077 190.972 83.6022 191.465 82.9855C191.971 82.3565 192.353 81.598 192.612 80.71C192.871 79.8097 193.001 78.7983 193.001 77.676L194.925 78.1015C194.925 80.1488 194.567 81.8693 193.852 83.263C193.136 84.6567 192.15 85.7112 190.892 86.4265C189.634 87.1418 188.191 87.4995 186.563 87.4995ZM193.278 87V82.079H193.001V67.02H195.72V87H193.278ZM211.769 87C210.646 87.2343 209.536 87.3268 208.439 87.2775C207.353 87.2282 206.379 86.9938 205.516 86.5745C204.665 86.1552 204.017 85.5015 203.573 84.6135C203.216 83.8735 203.018 83.1273 202.981 82.375C202.957 81.6103 202.944 80.7408 202.944 79.7665V61.47H205.645V79.6555C205.645 80.4942 205.651 81.1972 205.664 81.7645C205.688 82.3195 205.818 82.8128 206.052 83.2445C206.496 84.0708 207.199 84.5642 208.161 84.7245C209.136 84.8848 210.338 84.8478 211.769 84.6135V87ZM198.671 69.351V67.02H211.769V69.351H198.671ZM216.075 63.2275V60.175H218.795V63.2275H216.075ZM216.075 87V67.02H218.795V87H216.075ZM232.684 87.555C230.699 87.555 229.003 87.1048 227.597 86.2045C226.191 85.3042 225.112 84.0585 224.359 82.4675C223.607 80.8765 223.231 79.0512 223.231 76.9915C223.231 74.8948 223.613 73.0572 224.378 71.4785C225.143 69.8998 226.228 68.6727 227.634 67.797C229.052 66.909 230.736 66.465 232.684 66.465C234.682 66.465 236.384 66.9152 237.79 67.8155C239.209 68.7035 240.288 69.943 241.028 71.534C241.78 73.1127 242.156 74.9318 242.156 76.9915C242.156 79.0882 241.78 80.932 241.028 82.523C240.276 84.1017 239.19 85.335 237.772 86.223C236.354 87.111 234.658 87.555 232.684 87.555ZM232.684 84.9465C234.904 84.9465 236.557 84.2127 237.642 82.745C238.728 81.265 239.27 79.3472 239.27 76.9915C239.27 74.5742 238.722 72.6502 237.624 71.2195C236.539 69.7888 234.892 69.0735 232.684 69.0735C231.192 69.0735 229.959 69.4127 228.984 70.091C228.022 70.757 227.301 71.6882 226.82 72.8845C226.351 74.0685 226.117 75.4375 226.117 76.9915C226.117 79.3965 226.672 81.3267 227.782 82.782C228.892 84.225 230.526 84.9465 232.684 84.9465ZM260.667 87V76.8065C260.667 75.6965 260.563 74.679 260.353 73.754C260.143 72.8167 259.804 72.0027 259.335 71.312C258.879 70.609 258.281 70.0663 257.541 69.684C256.813 69.3017 255.925 69.1105 254.877 69.1105C253.915 69.1105 253.064 69.277 252.324 69.61C251.596 69.943 250.98 70.424 250.474 71.053C249.981 71.6697 249.604 72.422 249.345 73.31C249.086 74.198 248.957 75.2093 248.957 76.344L247.033 75.9185C247.033 73.8712 247.391 72.1507 248.106 70.757C248.821 69.3633 249.808 68.3088 251.066 67.5935C252.324 66.8782 253.767 66.5205 255.395 66.5205C256.591 66.5205 257.633 66.7055 258.521 67.0755C259.422 67.4455 260.18 67.945 260.797 68.574C261.426 69.203 261.932 69.9245 262.314 70.7385C262.696 71.5402 262.974 72.3973 263.146 73.31C263.319 74.2103 263.405 75.1107 263.405 76.011V87H260.667ZM246.219 87V67.02H248.679V71.941H248.957V87H246.219ZM275.662 87.5365C273.318 87.5365 271.388 87.0308 269.871 86.0195C268.367 85.0082 267.442 83.6022 267.096 81.8015L269.871 81.339C270.167 82.4737 270.839 83.3802 271.888 84.0585C272.948 84.7245 274.256 85.0575 275.81 85.0575C277.327 85.0575 278.523 84.743 279.399 84.114C280.274 83.4727 280.712 82.6032 280.712 81.5055C280.712 80.8888 280.57 80.3893 280.287 80.007C280.015 79.6123 279.454 79.2485 278.603 78.9155C277.752 78.5825 276.482 78.1878 274.792 77.7315C272.979 77.2382 271.561 76.7448 270.537 76.2515C269.514 75.7582 268.786 75.1908 268.354 74.5495C267.923 73.8958 267.707 73.1003 267.707 72.163C267.707 71.0283 268.027 70.0355 268.669 69.1845C269.31 68.3212 270.198 67.6552 271.333 67.1865C272.467 66.7055 273.787 66.465 275.292 66.465C276.796 66.465 278.141 66.7117 279.325 67.205C280.521 67.686 281.483 68.3643 282.211 69.24C282.938 70.1157 283.37 71.1332 283.506 72.2925L280.731 72.792C280.546 71.6203 279.96 70.6953 278.973 70.017C277.999 69.3263 276.759 68.9687 275.255 68.944C273.836 68.907 272.683 69.1783 271.795 69.758C270.907 70.3253 270.463 71.0838 270.463 72.0335C270.463 72.5638 270.624 73.0202 270.944 73.4025C271.265 73.7725 271.845 74.124 272.683 74.457C273.534 74.79 274.743 75.1538 276.309 75.5485C278.147 76.0172 279.59 76.5105 280.638 77.0285C281.687 77.5465 282.433 78.157 282.877 78.86C283.321 79.563 283.543 80.4325 283.543 81.4685C283.543 83.3555 282.84 84.8417 281.434 85.927C280.04 87 278.116 87.5365 275.662 87.5365Z" fill="#11D186"/>
<path d="M129.808 86.63L129.417 87.5504L129.426 87.5542L129.808 86.63ZM126.127 83.966L125.36 84.6086L125.364 84.6134L126.127 83.966ZM124.24 79.8775L124.075 78.8911L123.069 79.0589L123.257 80.0618L124.24 79.8775ZM127.015 79.415L127.983 79.166L127.755 78.2779L126.85 78.4286L127.015 79.415ZM129.827 83.485L129.259 84.3082L129.264 84.3115L129.827 83.485ZM138.466 84.336L138.832 85.2668L138.841 85.2629L138.466 84.336ZM140.908 82.56L141.699 83.1722L141.699 83.1722L140.908 82.56ZM141.426 78.083L140.532 78.5302L140.536 78.5393L141.426 78.083ZM140.446 76.862L141.064 76.0765L141.064 76.0765L140.446 76.862ZM139.114 76.0665L138.694 76.9745L138.704 76.9789L138.714 76.9832L139.114 76.0665ZM137.708 75.53L137.421 76.4882L137.423 76.4885L137.708 75.53ZM130.955 73.5135L131.241 72.5553L131.232 72.5525L130.955 73.5135ZM128.698 72.6255L128.226 73.5071L128.238 73.5135L128.698 72.6255ZM126.885 71.312L126.169 72.0105L126.178 72.0192L126.186 72.0276L126.885 71.312ZM125.701 69.499L124.776 69.8789L124.776 69.8789L125.701 69.499ZM126.46 63.2275L125.648 62.6437L125.648 62.6437L126.46 63.2275ZM134.378 59.8235L134.37 60.8235H134.378V59.8235ZM139.132 60.767L138.721 61.6785L138.724 61.6798L139.132 60.767ZM142.61 63.468L141.821 64.0825L141.824 64.0866L142.61 63.468ZM144.423 67.5935L144.602 68.5774L145.59 68.3978L145.406 67.4106L144.423 67.5935ZM141.574 68.1115L140.586 68.2691L140.748 69.2782L141.753 69.0954L141.574 68.1115ZM140.298 65.096L141.085 64.4797L141.085 64.4797L140.298 65.096ZM137.745 63.135L137.328 64.0442L137.335 64.0472L137.341 64.0502L137.745 63.135ZM134.359 62.4135L134.369 61.4135H134.359V62.4135ZM131.159 63.024L131.551 63.9438L131.557 63.9413L131.159 63.024ZM128.883 69.1845L128.143 69.8572L128.151 69.8662L128.883 69.1845ZM130.733 70.461L130.343 71.3818L130.348 71.3841L130.733 70.461ZM132.879 71.2195L133.161 70.2602L133.154 70.258L132.879 71.2195ZM138.096 72.755L137.814 73.7143L137.823 73.7171L137.833 73.7198L138.096 72.755ZM140.002 73.4025L139.638 74.3342L139.648 74.3379L139.657 74.3414L140.002 73.4025ZM142.148 74.5865L141.548 75.3865L141.555 75.3925L141.564 75.3983L142.148 74.5865ZM143.887 76.5845L144.762 76.1011L144.762 76.1011L143.887 76.5845ZM143.831 83.041L142.939 82.5893L142.934 82.5983L143.831 83.041ZM141.778 85.5015L141.177 84.7015L141.172 84.7056L141.778 85.5015ZM138.688 87.0185L138.408 86.0584L138.396 86.0621L138.688 87.0185ZM134.84 86.555C133.089 86.555 131.544 86.2653 130.19 85.7058L129.426 87.5542C131.057 88.228 132.867 88.555 134.84 88.555V86.555ZM130.199 85.7097C128.852 85.1373 127.755 84.3389 126.889 83.3186L125.364 84.6134C126.446 85.8871 127.804 86.8647 129.417 87.5503L130.199 85.7097ZM126.893 83.3234C126.049 82.3176 125.489 81.1157 125.222 79.6932L123.257 80.0618C123.582 81.7966 124.28 83.3204 125.36 84.6086L126.893 83.3234ZM124.404 80.8639L127.179 80.4014L126.85 78.4286L124.075 78.8911L124.404 80.8639ZM126.046 79.664C126.548 81.6175 127.624 83.1809 129.259 84.3082L130.394 82.6618C129.168 81.8158 128.369 80.6658 127.983 79.166L126.046 79.664ZM129.264 84.3115C130.884 85.4149 132.795 85.9465 134.951 85.9465V83.9465C133.136 83.9465 131.631 83.5038 130.389 82.6585L129.264 84.3115ZM134.951 85.9465C136.362 85.9465 137.661 85.7267 138.832 85.2668L138.1 83.4052C137.199 83.7593 136.155 83.9465 134.951 83.9465V85.9465ZM138.841 85.2629C140.015 84.7877 140.983 84.0972 141.699 83.1722L140.117 81.9478C139.649 82.5522 138.989 83.0456 138.091 83.4091L138.841 85.2629ZM141.699 83.1722C142.438 82.2172 142.796 81.0906 142.796 79.8405H140.796C140.796 80.687 140.562 81.3734 140.117 81.9478L141.699 83.1722ZM142.796 79.8405C142.796 79.034 142.652 78.2826 142.316 77.6267L140.536 78.5393C140.693 78.8454 140.796 79.2657 140.796 79.8405H142.796ZM142.32 77.6358C142.012 77.0195 141.594 76.4941 141.064 76.0765L139.827 77.6475C140.111 77.8712 140.346 78.1599 140.532 78.5302L142.32 77.6358ZM141.064 76.0765C140.589 75.7022 140.071 75.3932 139.513 75.1498L138.714 76.9832C139.118 77.1591 139.488 77.3804 139.827 77.6475L141.064 76.0765ZM139.533 75.1585C139.013 74.9187 138.499 74.7222 137.992 74.5715L137.423 76.4885C137.828 76.6092 138.252 76.7703 138.694 76.9745L139.533 75.1585ZM137.994 74.5718L131.241 72.5553L130.669 74.4717L137.421 76.4882L137.994 74.5718ZM131.232 72.5525C130.475 72.3348 129.785 72.0623 129.158 71.7375L128.238 73.5135C128.992 73.904 129.807 74.2235 130.678 74.4745L131.232 72.5525ZM129.17 71.744C128.556 71.4148 128.029 71.0313 127.584 70.5964L126.186 72.0276C126.777 72.6041 127.459 73.0962 128.226 73.507L129.17 71.744ZM127.601 70.6135C127.187 70.1902 126.863 69.6949 126.626 69.1191L124.776 69.8789C125.107 70.6844 125.571 71.3978 126.169 72.0105L127.601 70.6135ZM126.626 69.1191C126.4 68.5695 126.276 67.9129 126.276 67.131H124.276C124.276 68.1251 124.434 69.0472 124.776 69.8789L126.626 69.1191ZM126.276 67.131C126.276 65.8111 126.618 64.7198 127.271 63.8113L125.648 62.6437C124.722 63.9305 124.276 65.4416 124.276 67.131H126.276ZM127.271 63.8113C127.944 62.8753 128.873 62.1387 130.094 61.6109L129.3 59.7751C127.783 60.4313 126.553 61.3843 125.648 62.6437L127.271 63.8113ZM130.094 61.6109C131.315 61.0827 132.734 60.812 134.37 60.8235L134.385 58.8235C132.518 58.8104 130.817 59.1193 129.3 59.7751L130.094 61.6109ZM134.378 60.8235C136.034 60.8235 137.475 61.1165 138.721 61.6785L139.543 59.8555C138.001 59.1595 136.273 58.8235 134.378 58.8235V60.8235ZM138.724 61.6798C139.986 62.2446 141.013 63.0448 141.821 64.0825L143.399 62.8535C142.382 61.5479 141.09 60.5474 139.54 59.8542L138.724 61.6798ZM141.824 64.0866C142.627 65.1068 143.171 66.3287 143.44 67.7764L145.406 67.4106C145.083 65.6762 144.418 64.1479 143.396 62.8494L141.824 64.0866ZM144.244 66.6096L141.395 67.1276L141.753 69.0954L144.602 68.5774L144.244 66.6096ZM142.562 67.9539C142.352 66.6421 141.864 65.4755 141.085 64.4797L139.51 65.7123C140.063 66.4185 140.426 67.2623 140.586 68.2691L142.562 67.9539ZM141.085 64.4797C140.313 63.4927 139.327 62.7393 138.148 62.2198L137.341 64.0502C138.234 64.4433 138.95 64.9973 139.51 65.7123L141.085 64.4797ZM138.161 62.2258C136.998 61.6933 135.729 61.4271 134.369 61.4135L134.349 63.4134C135.456 63.4245 136.444 63.6394 137.328 64.0442L138.161 62.2258ZM134.359 61.4135C133.049 61.4135 131.843 61.6366 130.76 62.1067L131.557 63.9413C132.349 63.5973 133.277 63.4135 134.359 63.4135V61.4135ZM130.766 62.1042C129.709 62.5552 128.831 63.1933 128.171 64.0342L129.743 65.2698C130.168 64.7294 130.758 64.2822 131.551 63.9438L130.766 62.1042ZM128.171 64.0342C127.488 64.9031 127.143 65.9106 127.143 67.02H129.143C129.143 66.3534 129.341 65.7822 129.743 65.2698L128.171 64.0342ZM127.143 67.02C127.143 68.1098 127.446 69.0908 128.143 69.8572L129.623 68.5118C129.333 68.1929 129.143 67.7309 129.143 67.02H127.143ZM128.151 69.8662C128.759 70.5183 129.494 71.0223 130.343 71.3818L131.123 69.5402C130.516 69.2831 130.018 68.936 129.615 68.5028L128.151 69.8662ZM130.348 71.3841C131.12 71.7057 131.872 71.9719 132.604 72.181L133.154 70.258C132.504 70.0725 131.826 69.833 131.118 69.5379L130.348 71.3841ZM132.597 72.1788L137.814 73.7143L138.378 71.7957L133.161 70.2602L132.597 72.1788ZM137.833 73.7198C138.331 73.8557 138.932 74.0588 139.638 74.3342L140.365 72.4708C139.616 72.1789 138.946 71.9503 138.359 71.7902L137.833 73.7198ZM139.657 74.3414C140.297 74.5761 140.927 74.9215 141.548 75.3865L142.748 73.7865C141.986 73.2155 141.186 72.7716 140.346 72.4636L139.657 74.3414ZM141.564 75.3983C142.136 75.8099 142.62 76.3594 143.011 77.0679L144.762 76.1011C144.24 75.1569 143.565 74.3744 142.731 73.7747L141.564 75.3983ZM143.011 77.0679C143.362 77.7038 143.571 78.5721 143.571 79.7295H145.571C145.571 78.3462 145.323 77.1178 144.762 76.1011L143.011 77.0679ZM143.571 79.7295C143.571 80.8264 143.353 81.7722 142.939 82.5893L144.723 83.4927C145.296 82.3612 145.571 81.0993 145.571 79.7295H143.571ZM142.934 82.5983C142.524 83.4288 141.943 84.1276 141.178 84.7015L142.378 86.3015C143.388 85.5434 144.176 84.6019 144.728 83.4837L142.934 82.5983ZM141.172 84.7056C140.405 85.289 139.489 85.7433 138.408 86.0585L138.968 87.9785C140.255 87.603 141.399 87.046 142.383 86.2974L141.172 84.7056ZM138.396 86.0621C137.331 86.3872 136.148 86.555 134.84 86.555V88.555C136.319 88.555 137.702 88.3651 138.98 87.9749L138.396 86.0621ZM151.646 86.2045L152.185 85.3624L152.185 85.3624L151.646 86.2045ZM148.408 82.4675L147.504 82.895L147.504 82.895L148.408 82.4675ZM148.427 71.4785L147.527 71.0426L147.527 71.0426L148.427 71.4785ZM151.683 67.797L152.211 68.6458L152.213 68.6446L151.683 67.797ZM161.839 67.8155L161.3 68.6577L161.309 68.6631L161.839 67.8155ZM165.077 71.534L164.17 71.9557L164.174 71.9642L165.077 71.534ZM165.077 82.523L165.98 82.9532L165.981 82.9505L165.077 82.523ZM161.691 82.745L162.495 83.3396L162.498 83.3364L161.691 82.745ZM161.673 71.2195L160.876 71.8239L160.879 71.8282L161.673 71.2195ZM153.033 70.091L153.603 70.9132L153.605 70.9117L153.033 70.091ZM150.869 72.8845L149.941 72.5115L149.939 72.5165L150.869 72.8845ZM151.831 82.782L151.036 83.3885L151.038 83.3917L151.831 82.782ZM156.733 86.555C154.902 86.555 153.402 86.1415 152.185 85.3624L151.107 87.0466C152.702 88.0682 154.593 88.555 156.733 88.555V86.555ZM152.185 85.3624C150.946 84.5689 149.989 83.4709 149.312 82.04L147.504 82.895C148.332 84.6461 149.534 86.0395 151.107 87.0466L152.185 85.3624ZM149.312 82.04C148.633 80.6036 148.28 78.9283 148.28 76.9915H146.28C146.28 79.174 146.679 81.1494 147.504 82.895L149.312 82.04ZM148.28 76.9915C148.28 75.0167 148.64 73.3332 149.327 71.9144L147.527 71.0426C146.685 72.7811 146.28 74.773 146.28 76.9915H148.28ZM149.327 71.9144C150.014 70.4952 150.975 69.4157 152.211 68.6458L151.154 66.9482C149.578 67.9296 148.369 69.3045 147.527 71.0426L149.327 71.9144ZM152.213 68.6446C153.448 67.8716 154.941 67.465 156.733 67.465V65.465C154.628 65.465 152.754 65.9464 151.152 66.9494L152.213 68.6446ZM156.733 67.465C158.578 67.465 160.084 67.8791 161.3 68.6576L162.379 66.9734C160.782 65.9512 158.884 65.465 156.733 65.465V67.465ZM161.309 68.6631C162.555 69.4434 163.507 70.5311 164.17 71.9557L165.984 71.1123C165.166 69.3549 163.96 67.9636 162.37 66.9679L161.309 68.6631ZM164.174 71.9642C164.852 73.3867 165.205 75.0544 165.205 76.9915H167.205C167.205 74.8092 166.806 72.8387 165.98 71.1038L164.174 71.9642ZM165.205 76.9915C165.205 78.9683 164.851 80.6613 164.173 82.0955L165.981 82.9505C166.807 81.2027 167.205 79.208 167.205 76.9915H165.205ZM164.174 82.0928C163.5 83.5079 162.54 84.593 161.29 85.3754L162.351 87.0706C163.938 86.077 165.149 84.6954 165.98 82.9532L164.174 82.0928ZM161.29 85.3754C160.058 86.1471 158.553 86.555 156.733 86.555V88.555C158.86 88.555 160.747 88.0749 162.351 87.0706L161.29 85.3754ZM156.733 85.9465C159.194 85.9465 161.18 85.1183 162.495 83.3396L160.887 82.1504C160.032 83.307 158.713 83.9465 156.733 83.9465V85.9465ZM162.498 83.3364C163.74 81.6417 164.319 79.4993 164.319 76.9915H162.319C162.319 79.195 161.813 80.8883 160.885 82.1536L162.498 83.3364ZM164.319 76.9915C164.319 74.4286 163.737 72.2672 162.466 70.6108L160.879 71.8282C161.804 73.0332 162.319 74.7198 162.319 76.9915H164.319ZM162.469 70.6151C161.152 68.8778 159.174 68.0735 156.733 68.0735V70.0735C158.708 70.0735 160.023 70.6998 160.876 71.8239L162.469 70.6151ZM156.733 68.0735C155.089 68.0735 153.643 68.4483 152.462 69.2703L153.605 70.9117C154.373 70.377 155.393 70.0735 156.733 70.0735V68.0735ZM152.464 69.2688C151.325 70.0575 150.487 71.1528 149.941 72.5115L151.797 73.2575C152.212 72.2235 152.818 71.4565 153.603 70.9132L152.464 69.2688ZM149.939 72.5165C149.415 73.8403 149.166 75.3385 149.166 76.9915H151.166C151.166 75.5365 151.385 74.2967 151.799 73.2525L149.939 72.5165ZM149.166 76.9915C149.166 79.5468 149.756 81.7111 151.036 83.3884L152.626 82.1756C151.685 80.9422 151.166 79.2462 151.166 76.9915H149.166ZM151.038 83.3917C152.374 85.1279 154.329 85.9465 156.733 85.9465V83.9465C154.821 83.9465 153.508 83.3221 152.623 82.1723L151.038 83.3917ZM170.656 87H169.656V88H170.656V87ZM170.656 59.805V58.805H169.656V59.805H170.656ZM173.376 59.805H174.376V58.805H173.376V59.805ZM173.376 87V88H174.376V87H173.376ZM171.656 87V59.805H169.656V87H171.656ZM170.656 60.805H173.376V58.805H170.656V60.805ZM172.376 59.805V87H174.376V59.805H172.376ZM173.376 86H170.656V88H173.376V86ZM183.418 86.9445L183.033 87.8676L183.037 87.8694L183.418 86.9445ZM181.142 85.446L180.428 86.1461L180.435 86.1531L181.142 85.446ZM179.644 83.3L178.738 83.7251L178.741 83.7305L179.644 83.3ZM178.811 80.7285L177.828 80.9144L177.829 80.9168L178.811 80.7285ZM178.552 67.02V66.02H177.552V67.02H178.552ZM181.29 67.02H182.29V66.02H181.29V67.02ZM181.605 80.266L182.58 80.0477L182.58 80.0477L181.605 80.266ZM182.604 82.7265L181.765 83.271L181.77 83.2795L181.776 83.288L182.604 82.7265ZM184.398 84.336L183.933 85.2213L183.939 85.2244L184.398 84.336ZM189.615 84.41L189.205 83.4981L189.199 83.5007L189.615 84.41ZM191.465 82.9855L190.686 82.3589L190.684 82.3608L191.465 82.9855ZM192.612 80.71L193.572 80.99L193.573 80.9865L192.612 80.71ZM193.001 77.676L193.216 76.6996L192.001 76.4307V77.676H193.001ZM194.925 78.1015H195.925V77.2985L195.14 77.1251L194.925 78.1015ZM193.852 83.263L194.741 83.7196L194.741 83.7196L193.852 83.263ZM190.892 86.4265L190.397 85.5572L190.892 86.4265ZM193.278 87H192.278V88H193.278V87ZM193.278 82.079H194.278V81.079H193.278V82.079ZM193.001 82.079H192.001V83.079H193.001V82.079ZM193.001 67.02V66.02H192.001V67.02H193.001ZM195.72 67.02H196.72V66.02H195.72V67.02ZM195.72 87V88H196.72V87H195.72ZM186.563 86.4995C185.468 86.4995 184.553 86.3301 183.798 86.0196L183.037 87.8694C184.083 88.2989 185.265 88.4995 186.563 88.4995V86.4995ZM183.802 86.0214C183.025 85.6975 182.378 85.2682 181.849 84.7389L180.435 86.1531C181.164 86.8818 182.034 87.4515 183.033 87.8676L183.802 86.0214ZM181.856 84.7459C181.317 84.1964 180.881 83.5724 180.546 82.8695L178.741 83.7305C179.17 84.631 179.733 85.4376 180.428 86.1461L181.856 84.7459ZM180.549 82.8749C180.202 82.1377 179.95 81.3603 179.793 80.5402L177.829 80.9168C178.017 81.8974 178.32 82.8343 178.738 83.7251L180.549 82.8749ZM179.794 80.5426C179.632 79.6893 179.552 78.845 179.552 78.009H177.552C177.552 78.9736 177.645 79.9424 177.828 80.9144L179.794 80.5426ZM179.552 78.009V67.02H177.552V78.009H179.552ZM178.552 68.02H181.29V66.02H178.552V68.02ZM180.29 67.02V77.2135H182.29V67.02H180.29ZM180.29 77.2135C180.29 78.3744 180.401 79.466 180.629 80.4843L182.58 80.0477C182.389 79.1914 182.29 78.2479 182.29 77.2135H180.29ZM180.629 80.4843C180.861 81.5209 181.235 82.4548 181.765 83.271L183.442 82.182C183.059 81.5922 182.768 80.8857 182.58 80.0477L180.629 80.4843ZM181.776 83.288C182.336 84.1125 183.057 84.7612 183.933 85.2212L184.863 83.4508C184.283 83.1461 183.809 82.7218 183.431 82.165L181.776 83.288ZM183.939 85.2244C184.853 85.6966 185.913 85.9095 187.081 85.9095V83.9095C186.152 83.9095 185.423 83.7401 184.857 83.4476L183.939 85.2244ZM187.081 85.9095C188.158 85.9095 189.149 85.7229 190.031 85.3193L189.199 83.5007C188.626 83.7631 187.927 83.9095 187.081 83.9095V85.9095ZM190.025 85.3219C190.906 84.9257 191.651 84.3541 192.246 83.6102L190.684 82.3608C190.293 82.8502 189.804 83.2283 189.205 83.4981L190.025 85.3219ZM192.244 83.6121C192.844 82.8667 193.282 81.986 193.572 80.99L191.652 80.43C191.425 81.21 191.098 81.8463 190.686 82.3589L192.244 83.6121ZM193.573 80.9865C193.862 79.9806 194.001 78.874 194.001 77.676H192.001C192.001 78.7227 191.88 79.6388 191.651 80.4335L193.573 80.9865ZM192.785 78.6524L194.709 79.0779L195.14 77.1251L193.216 76.6996L192.785 78.6524ZM193.925 78.1015C193.925 80.037 193.586 81.5906 192.962 82.8064L194.741 83.7196C195.548 82.1481 195.925 80.2606 195.925 78.1015H193.925ZM192.962 82.8064C192.328 84.0419 191.472 84.946 190.397 85.5572L191.386 87.2958C192.827 86.4763 193.945 85.2715 194.741 83.7196L192.962 82.8064ZM190.397 85.5572C189.308 86.1766 188.039 86.4995 186.563 86.4995V88.4995C188.342 88.4995 189.959 88.1071 191.386 87.2958L190.397 85.5572ZM194.278 87V82.079H192.278V87H194.278ZM193.278 81.079H193.001V83.079H193.278V81.079ZM194.001 82.079V67.02H192.001V82.079H194.001ZM193.001 68.02H195.72V66.02H193.001V68.02ZM194.72 67.02V87H196.72V67.02H194.72ZM195.72 86H193.278V88H195.72V86ZM211.769 87L211.973 87.9789L212.769 87.8128V87H211.769ZM208.439 87.2775L208.393 88.2765L208.394 88.2765L208.439 87.2775ZM205.516 86.5745L205.074 87.4715L205.079 87.474L205.516 86.5745ZM203.573 84.6135L202.673 85.0487L202.679 85.0607L203.573 84.6135ZM202.981 82.375L201.982 82.4072L201.982 82.4157L201.982 82.4241L202.981 82.375ZM202.944 61.47V60.47H201.944V61.47H202.944ZM205.645 61.47H206.645V60.47H205.645V61.47ZM205.664 81.7645L204.664 81.7862L204.664 81.7976L204.665 81.8089L205.664 81.7645ZM206.052 83.2445L206.933 82.7712L206.931 82.7674L206.052 83.2445ZM208.161 84.7245L207.997 85.7109L207.999 85.7112L208.161 84.7245ZM211.769 84.6135H212.769V83.4364L211.607 83.6266L211.769 84.6135ZM198.671 69.351H197.671V70.351H198.671V69.351ZM198.671 67.02V66.02H197.671V67.02H198.671ZM211.769 67.02H212.769V66.02H211.769V67.02ZM211.769 69.351V70.351H212.769V69.351H211.769ZM211.564 86.0211C210.52 86.2391 209.494 86.3239 208.484 86.2785L208.394 88.2765C209.579 88.3297 210.772 88.2296 211.973 87.9789L211.564 86.0211ZM208.484 86.2785C207.517 86.2346 206.678 86.0275 205.953 85.675L205.079 87.474C206.08 87.9601 207.19 88.2218 208.393 88.2765L208.484 86.2785ZM205.958 85.6775C205.312 85.3594 204.819 84.8687 204.468 84.1663L202.679 85.0607C203.216 86.1343 204.017 86.951 205.074 87.4715L205.958 85.6775ZM204.474 84.1783C204.169 83.548 204.01 82.9325 203.98 82.3259L201.982 82.4241C202.027 83.3222 202.262 84.199 202.673 85.0487L204.474 84.1783ZM203.981 82.3428C203.957 81.5913 203.944 80.7328 203.944 79.7665H201.944C201.944 80.7488 201.957 81.6294 201.982 82.4072L203.981 82.3428ZM203.944 79.7665V61.47H201.944V79.7665H203.944ZM202.944 62.47H205.645V60.47H202.944V62.47ZM204.645 61.47V79.6555H206.645V61.47H204.645ZM204.645 79.6555C204.645 80.4983 204.651 81.2091 204.664 81.7862L206.664 81.7428C206.651 81.1852 206.645 80.49 206.645 79.6555H204.645ZM204.665 81.8089C204.695 82.4954 204.858 83.1402 205.173 83.7216L206.931 82.7674C206.778 82.4855 206.682 82.1436 206.663 81.7201L204.665 81.8089ZM205.171 83.7178C205.769 84.8292 206.744 85.502 207.997 85.7109L208.326 83.7381C207.655 83.6263 207.224 83.3124 206.933 82.7712L205.171 83.7178ZM207.999 85.7112C209.118 85.8954 210.438 85.8448 211.93 85.6003L211.607 83.6266C210.238 83.8509 209.153 83.8743 208.324 83.7378L207.999 85.7112ZM210.769 84.6135V87H212.769V84.6135H210.769ZM199.671 69.351V67.02H197.671V69.351H199.671ZM198.671 68.02H211.769V66.02H198.671V68.02ZM210.769 67.02V69.351H212.769V67.02H210.769ZM211.769 68.351H198.671V70.351H211.769V68.351ZM216.075 63.2275H215.075V64.2275H216.075V63.2275ZM216.075 60.175V59.175H215.075V60.175H216.075ZM218.795 60.175H219.795V59.175H218.795V60.175ZM218.795 63.2275V64.2275H219.795V63.2275H218.795ZM216.075 87H215.075V88H216.075V87ZM216.075 67.02V66.02H215.075V67.02H216.075ZM218.795 67.02H219.795V66.02H218.795V67.02ZM218.795 87V88H219.795V87H218.795ZM217.075 63.2275V60.175H215.075V63.2275H217.075ZM216.075 61.175H218.795V59.175H216.075V61.175ZM217.795 60.175V63.2275H219.795V60.175H217.795ZM218.795 62.2275H216.075V64.2275H218.795V62.2275ZM217.075 87V67.02H215.075V87H217.075ZM216.075 68.02H218.795V66.02H216.075V68.02ZM217.795 67.02V87H219.795V67.02H217.795ZM218.795 86H216.075V88H218.795V86ZM227.597 86.2045L228.136 85.3624L228.136 85.3624L227.597 86.2045ZM224.359 82.4675L223.455 82.895L223.455 82.895L224.359 82.4675ZM224.378 71.4785L223.478 71.0426L223.478 71.0426L224.378 71.4785ZM227.634 67.797L228.163 68.6458L228.165 68.6446L227.634 67.797ZM237.79 67.8155L237.251 68.6577L237.26 68.6631L237.79 67.8155ZM241.028 71.534L240.121 71.9557L240.125 71.9642L241.028 71.534ZM241.028 82.523L241.931 82.9532L241.932 82.9505L241.028 82.523ZM237.642 82.745L238.447 83.3396L238.449 83.3364L237.642 82.745ZM237.624 71.2195L236.827 71.8239L236.831 71.8282L237.624 71.2195ZM228.984 70.091L229.554 70.9132L229.556 70.9117L228.984 70.091ZM226.82 72.8845L225.892 72.5115L225.89 72.5165L226.82 72.8845ZM227.782 82.782L226.987 83.3885L226.989 83.3917L227.782 82.782ZM232.684 86.555C230.853 86.555 229.353 86.1415 228.136 85.3624L227.058 87.0466C228.653 88.0682 230.544 88.555 232.684 88.555V86.555ZM228.136 85.3624C226.897 84.5689 225.94 83.4709 225.263 82.04L223.455 82.895C224.283 84.6461 225.485 86.0395 227.058 87.0466L228.136 85.3624ZM225.263 82.04C224.584 80.6036 224.231 78.9283 224.231 76.9915H222.231C222.231 79.174 222.63 81.1494 223.455 82.895L225.263 82.04ZM224.231 76.9915C224.231 75.0167 224.591 73.3332 225.278 71.9144L223.478 71.0426C222.636 72.7811 222.231 74.773 222.231 76.9915H224.231ZM225.278 71.9144C225.965 70.4952 226.927 69.4157 228.163 68.6458L227.105 66.9482C225.529 67.9296 224.32 69.3045 223.478 71.0426L225.278 71.9144ZM228.165 68.6446C229.399 67.8716 230.892 67.465 232.684 67.465V65.465C230.58 65.465 228.705 65.9464 227.103 66.9494L228.165 68.6446ZM232.684 67.465C234.529 67.465 236.035 67.8791 237.251 68.6576L238.33 66.9734C236.733 65.9512 234.836 65.465 232.684 65.465V67.465ZM237.26 68.6631C238.506 69.4434 239.459 70.5311 240.121 71.9557L241.935 71.1123C241.117 69.3549 239.912 67.9636 238.321 66.9679L237.26 68.6631ZM240.125 71.9642C240.803 73.3867 241.156 75.0544 241.156 76.9915H243.156C243.156 74.8092 242.757 72.8387 241.931 71.1038L240.125 71.9642ZM241.156 76.9915C241.156 78.9683 240.802 80.6613 240.124 82.0955L241.932 82.9505C242.758 81.2027 243.156 79.208 243.156 76.9915H241.156ZM240.125 82.0928C239.451 83.5079 238.491 84.593 237.241 85.3754L238.303 87.0706C239.89 86.077 241.1 84.6954 241.931 82.9532L240.125 82.0928ZM237.241 85.3754C236.009 86.1471 234.504 86.555 232.684 86.555V88.555C234.811 88.555 236.699 88.0749 238.303 87.0706L237.241 85.3754ZM232.684 85.9465C235.145 85.9465 237.131 85.1183 238.447 83.3396L236.838 82.1504C235.983 83.307 234.664 83.9465 232.684 83.9465V85.9465ZM238.449 83.3364C239.692 81.6417 240.27 79.4993 240.27 76.9915H238.27C238.27 79.195 237.764 80.8883 236.836 82.1536L238.449 83.3364ZM240.27 76.9915C240.27 74.4286 239.688 72.2672 238.417 70.6108L236.831 71.8282C237.755 73.0332 238.27 74.7198 238.27 76.9915H240.27ZM238.421 70.6151C237.103 68.8778 235.125 68.0735 232.684 68.0735V70.0735C234.659 70.0735 235.975 70.6998 236.827 71.8239L238.421 70.6151ZM232.684 68.0735C231.041 68.0735 229.594 68.4483 228.413 69.2703L229.556 70.9117C230.324 70.377 231.344 70.0735 232.684 70.0735V68.0735ZM228.415 69.2688C227.276 70.0575 226.438 71.1528 225.892 72.5115L227.748 73.2575C228.164 72.2235 228.769 71.4565 229.554 70.9132L228.415 69.2688ZM225.89 72.5165C225.366 73.8403 225.117 75.3385 225.117 76.9915H227.117C227.117 75.5365 227.336 74.2967 227.75 73.2525L225.89 72.5165ZM225.117 76.9915C225.117 79.5468 225.708 81.7111 226.987 83.3884L228.577 82.1756C227.636 80.9422 227.117 79.2462 227.117 76.9915H225.117ZM226.989 83.3917C228.325 85.1279 230.28 85.9465 232.684 85.9465V83.9465C230.772 83.9465 229.459 83.3221 228.575 82.1723L226.989 83.3917ZM260.667 87H259.667V88H260.667V87ZM260.353 73.754L259.377 73.9723L259.378 73.9751L260.353 73.754ZM259.335 71.312L258.497 71.8565L258.502 71.865L258.508 71.8735L259.335 71.312ZM257.541 69.684L257.076 70.5693L257.082 70.5724L257.541 69.684ZM252.324 69.61L251.914 68.6981L251.908 68.7007L252.324 69.61ZM250.474 71.053L249.695 70.4264L249.693 70.4283L250.474 71.053ZM249.345 73.31L250.305 73.59L250.305 73.59L249.345 73.31ZM248.957 76.344L248.741 77.3204L249.957 77.5893V76.344H248.957ZM247.033 75.9185H246.033V76.7215L246.817 76.8949L247.033 75.9185ZM248.106 70.757L248.996 71.2136L248.996 71.2136L248.106 70.757ZM258.521 67.0755L258.137 67.9986L258.141 68.0004L258.521 67.0755ZM260.797 68.574L260.083 69.2741L260.09 69.2811L260.797 68.574ZM262.314 70.7385L261.409 71.1636L261.411 71.169L262.314 70.7385ZM263.146 73.31L262.164 73.4959L262.164 73.4983L263.146 73.31ZM263.405 87V88H264.405V87H263.405ZM246.219 87H245.219V88H246.219V87ZM246.219 67.02V66.02H245.219V67.02H246.219ZM248.679 67.02H249.679V66.02H248.679V67.02ZM248.679 71.941H247.679V72.941H248.679V71.941ZM248.957 71.941H249.957V70.941H248.957V71.941ZM248.957 87V88H249.957V87H248.957ZM261.667 87V76.8065H259.667V87H261.667ZM261.667 76.8065C261.667 75.6344 261.557 74.5415 261.328 73.5329L259.378 73.9751C259.568 74.8165 259.667 75.7586 259.667 76.8065H261.667ZM261.329 73.5357C261.096 72.4939 260.712 71.5597 260.163 70.7505L258.508 71.8735C258.896 72.4457 259.191 73.1394 259.377 73.9723L261.329 73.5357ZM260.174 70.7675C259.624 69.9198 258.895 69.2582 258 68.7956L257.082 70.5724C257.667 70.8745 258.134 71.2982 258.497 71.8565L260.174 70.7675ZM258.006 68.7988C257.101 68.3231 256.044 68.1105 254.877 68.1105V70.1105C255.807 70.1105 256.526 70.2802 257.076 70.5692L258.006 68.7988ZM254.877 68.1105C253.799 68.1105 252.804 68.2973 251.914 68.6981L252.734 70.5219C253.324 70.2567 254.031 70.1105 254.877 70.1105V68.1105ZM251.908 68.7007C251.037 69.099 250.297 69.6773 249.695 70.4264L251.253 71.6796C251.662 71.1707 252.155 70.787 252.74 70.5193L251.908 68.7007ZM249.693 70.4283C249.105 71.163 248.675 72.0377 248.385 73.03L250.305 73.59C250.534 72.8063 250.856 72.1764 251.255 71.6777L249.693 70.4283ZM248.385 73.03C248.095 74.0268 247.957 75.1352 247.957 76.344H249.957C249.957 75.2835 250.078 74.3692 250.305 73.59L248.385 73.03ZM249.173 75.3676L247.249 74.9421L246.817 76.8949L248.741 77.3204L249.173 75.3676ZM248.033 75.9185C248.033 73.983 248.372 72.4294 248.996 71.2136L247.216 70.3004C246.41 71.8719 246.033 73.7594 246.033 75.9185H248.033ZM248.996 71.2136C249.63 69.9781 250.485 69.074 251.56 68.4628L250.572 66.7242C249.131 67.5437 248.013 68.7485 247.216 70.3004L248.996 71.2136ZM251.56 68.4628C252.65 67.8434 253.918 67.5205 255.395 67.5205V65.5205C253.616 65.5205 251.998 65.9129 250.572 66.7242L251.56 68.4628ZM255.395 67.5205C256.49 67.5205 257.396 67.6901 258.137 67.9986L258.906 66.1524C257.87 65.7209 256.692 65.5205 255.395 65.5205V67.5205ZM258.141 68.0004C258.93 68.3243 259.571 68.7516 260.083 69.2741L261.511 67.8739C260.79 67.1384 259.914 66.5667 258.902 66.1506L258.141 68.0004ZM260.09 69.2811C260.636 69.8274 261.075 70.4532 261.409 71.1636L263.219 70.3134C262.788 69.3958 262.216 68.5786 261.504 67.8669L260.09 69.2811ZM261.411 71.169C261.755 71.8894 262.007 72.664 262.164 73.4959L264.129 73.1241C263.941 72.1307 263.638 71.1909 263.217 70.308L261.411 71.169ZM262.164 73.4983C262.325 74.3377 262.405 75.175 262.405 76.011H264.405C264.405 75.0463 264.313 74.0829 264.129 73.1217L262.164 73.4983ZM262.405 76.011V87H264.405V76.011H262.405ZM263.405 86H260.667V88H263.405V86ZM247.219 87V67.02H245.219V87H247.219ZM246.219 68.02H248.679V66.02H246.219V68.02ZM247.679 67.02V71.941H249.679V67.02H247.679ZM248.679 72.941H248.957V70.941H248.679V72.941ZM247.957 71.941V87H249.957V71.941H247.957ZM248.957 86H246.219V88H248.957V86ZM269.871 86.0195L269.313 86.8495L269.317 86.8516L269.871 86.0195ZM267.096 81.8015L266.932 80.8151L265.921 80.9836L266.114 81.9898L267.096 81.8015ZM269.871 81.339L270.839 81.0866L270.608 80.2024L269.707 80.3526L269.871 81.339ZM271.888 84.0585L271.344 84.8981L271.356 84.9054L271.888 84.0585ZM279.399 84.114L279.982 84.9262L279.99 84.9208L279.399 84.114ZM280.287 80.007L279.463 80.5735L279.473 80.5884L279.484 80.6028L280.287 80.007ZM278.603 78.9155L278.239 79.8467L278.239 79.8467L278.603 78.9155ZM274.792 77.7315L274.53 78.6964L274.531 78.6969L274.792 77.7315ZM270.537 76.2515L270.103 77.1523L270.103 77.1523L270.537 76.2515ZM268.354 74.5495L267.52 75.1006L267.525 75.1079L268.354 74.5495ZM268.669 69.1845L269.467 69.7864L269.471 69.7808L268.669 69.1845ZM271.333 67.1865L271.714 68.1108L271.723 68.1072L271.333 67.1865ZM279.325 67.205L278.94 68.1281L278.952 68.1328L279.325 67.205ZM282.211 69.24L281.442 69.8791L281.442 69.8791L282.211 69.24ZM283.506 72.2925L283.683 73.2767L284.608 73.1101L284.499 72.1763L283.506 72.2925ZM280.731 72.792L279.743 72.948L279.902 73.9572L280.908 73.7762L280.731 72.792ZM278.973 70.017L278.395 70.8328L278.401 70.837L278.407 70.841L278.973 70.017ZM275.255 68.944L275.229 69.9437L275.238 69.9439L275.255 68.944ZM271.795 69.758L272.334 70.6007L272.342 70.5954L271.795 69.758ZM270.944 73.4025L270.178 74.0451L270.183 74.0513L270.189 74.0574L270.944 73.4025ZM272.683 74.457L272.314 75.3864L272.319 75.3882L272.683 74.457ZM276.309 75.5485L276.556 74.5795L276.554 74.5788L276.309 75.5485ZM280.638 77.0285L281.081 76.132L281.081 76.132L280.638 77.0285ZM282.877 78.86L283.722 78.326L283.722 78.326L282.877 78.86ZM281.434 85.927L282.044 86.7194L282.045 86.7186L281.434 85.927ZM275.662 86.5365C273.46 86.5365 271.738 86.0619 270.426 85.1874L269.317 86.8516C271.039 87.9998 273.177 88.5365 275.662 88.5365V86.5365ZM270.429 85.1895C269.148 84.3288 268.374 83.1553 268.078 81.6132L266.114 81.9898C266.509 84.0491 267.585 85.6875 269.313 86.8495L270.429 85.1895ZM267.261 82.7879L270.036 82.3254L269.707 80.3526L266.932 80.8151L267.261 82.7879ZM268.904 81.5914C269.267 82.9846 270.101 84.0936 271.344 84.8981L272.431 83.2189C271.578 82.6668 271.067 81.9627 270.839 81.0866L268.904 81.5914ZM271.356 84.9054C272.61 85.693 274.113 86.0575 275.81 86.0575V84.0575C274.399 84.0575 273.286 83.756 272.419 83.2116L271.356 84.9054ZM275.81 86.0575C277.453 86.0575 278.88 85.718 279.982 84.9262L278.815 83.3018C278.166 83.768 277.2 84.0575 275.81 84.0575V86.0575ZM279.99 84.9208C281.126 84.0886 281.712 82.9177 281.712 81.5055H279.712C279.712 82.2887 279.423 82.8568 278.808 83.3072L279.99 84.9208ZM281.712 81.5055C281.712 80.7377 281.535 80.0107 281.09 79.4112L279.484 80.6028C279.606 80.768 279.712 81.0399 279.712 81.5055H281.712ZM281.111 79.4405C280.662 78.7885 279.862 78.3341 278.968 77.9843L278.239 79.8467C279.047 80.1629 279.368 80.4362 279.463 80.5735L281.111 79.4405ZM278.968 77.9843C278.065 77.631 276.752 77.225 275.053 76.7661L274.531 78.6969C276.212 79.1507 277.44 79.534 278.239 79.8467L278.968 77.9843ZM275.055 76.7666C273.268 76.2804 271.916 75.8059 270.971 75.3507L270.103 77.1523C271.206 77.6838 272.69 78.196 274.53 78.6964L275.055 76.7666ZM270.971 75.3507C270.037 74.9006 269.48 74.4318 269.184 73.9911L267.525 75.1079C268.091 75.9498 268.99 76.6158 270.103 77.1523L270.971 75.3507ZM269.189 73.9984C268.885 73.5381 268.707 72.9435 268.707 72.163H266.707C266.707 73.2572 266.96 74.2536 267.52 75.1006L269.189 73.9984ZM268.707 72.163C268.707 71.2305 268.965 70.4523 269.467 69.7863L267.87 68.5826C267.089 69.6187 266.707 70.8262 266.707 72.163H268.707ZM269.471 69.7808C269.99 69.0826 270.723 68.5202 271.714 68.1108L270.951 66.2622C269.673 66.7901 268.63 67.5598 267.866 68.5882L269.471 69.7808ZM271.723 68.1072C272.71 67.6887 273.892 67.465 275.292 67.465V65.465C273.682 65.465 272.225 65.7223 270.942 66.2658L271.723 68.1072ZM275.292 67.465C276.687 67.465 277.897 67.6935 278.94 68.1281L279.709 66.2819C278.384 65.7298 276.906 65.465 275.292 65.465V67.465ZM278.952 68.1328C280.015 68.5602 280.833 69.1471 281.442 69.8791L282.98 68.6009C282.133 67.5815 281.027 66.8118 279.698 66.2772L278.952 68.1328ZM281.442 69.8791C282.042 70.6019 282.399 71.4366 282.512 72.4087L284.499 72.1763C284.341 70.8298 283.835 69.6294 282.98 68.6009L281.442 69.8791ZM283.329 71.3083L280.554 71.8078L280.908 73.7762L283.683 73.2767L283.329 71.3083ZM281.718 72.636C281.49 71.1904 280.75 70.0251 279.54 69.193L278.407 70.841C279.17 71.3656 279.601 72.0502 279.743 72.948L281.718 72.636ZM279.552 69.2012C278.375 68.3669 276.925 67.9712 275.271 67.9441L275.238 69.9439C276.594 69.9661 277.623 70.2858 278.395 70.8328L279.552 69.2012ZM275.281 67.9443C273.727 67.9038 272.355 68.1981 271.249 68.9206L272.342 70.5954C273.011 70.1586 273.946 69.9102 275.229 69.9437L275.281 67.9443ZM271.257 68.9153C270.119 69.6425 269.463 70.7004 269.463 72.0335H271.463C271.463 71.4672 271.696 71.0082 272.334 70.6007L271.257 68.9153ZM269.463 72.0335C269.463 72.7829 269.696 73.4709 270.178 74.0451L271.71 72.7599C271.551 72.5695 271.463 72.3448 271.463 72.0335H269.463ZM270.189 74.0574C270.669 74.6124 271.432 75.0362 272.314 75.3864L273.052 73.5276C272.257 73.2118 271.86 72.9326 271.7 72.7476L270.189 74.0574ZM272.319 75.3882C273.228 75.7439 274.484 76.1198 276.065 76.5182L276.554 74.5788C275.002 74.1879 273.841 73.8361 273.048 73.5258L272.319 75.3882ZM276.062 76.5175C277.868 76.9781 279.236 77.451 280.195 77.925L281.081 76.132C279.944 75.57 278.425 75.0562 276.556 74.5795L276.062 76.5175ZM280.195 77.925C281.142 78.3931 281.718 78.8975 282.031 79.394L283.722 78.326C283.148 77.4165 282.231 76.6999 281.081 76.132L280.195 77.925ZM282.031 79.394C282.352 79.902 282.543 80.5752 282.543 81.4685H284.543C284.543 80.2898 284.289 79.224 283.722 78.326L282.031 79.394ZM282.543 81.4685C282.543 83.068 281.966 84.2527 280.823 85.1354L282.045 86.7186C283.713 85.4306 284.543 83.643 284.543 81.4685H282.543ZM280.824 85.1346C279.662 86.0288 277.981 86.5365 275.662 86.5365V88.5365C278.251 88.5365 280.418 87.9712 282.044 86.7194L280.824 85.1346Z" fill="#11D186" mask="url(#path-5-outside-2_537_28)"/>
</svg>
